<svg width="20" height="20" viewBox="0 0 20 20" fill="none" xmlns="http://www.w3.org/2000/svg">
<g id="gg:arrow-up-o" clip-path="url(#clip0_11035_728)">
<g id="Group">
<path id="Vector" d="M10.0428 12.3575L11.2211 13.5358L14.7578 9.99999L11.222 6.46416L10.0436 7.64332L11.5661 9.16666L5.28531 9.16666V10.8333H11.5661L10.0428 12.3575Z" fill="black"/>
<path id="Vector_2" fill-rule="evenodd" clip-rule="evenodd" d="M16.481 16.4817C20.061 12.9017 20.061 7.09833 16.481 3.51833C12.901 -0.0616717 7.09768 -0.0616717 3.51768 3.51833C-0.0623207 7.09833 -0.0623207 12.9017 3.51768 16.4817C7.09768 20.0617 12.901 20.0617 16.481 16.4817ZM15.3027 15.3033C16.7092 13.8968 17.4994 11.9891 17.4994 10C17.4994 8.01086 16.7092 6.10319 15.3027 4.69666C13.8962 3.29013 11.9885 2.49995 9.99935 2.49995C8.01021 2.49995 6.10254 3.29013 4.69601 4.69666C3.28948 6.10319 2.4993 8.01086 2.4993 10C2.4993 11.9891 3.28948 13.8968 4.69601 15.3033C6.10254 16.7099 8.01021 17.5 9.99935 17.5C11.9885 17.5 13.8962 16.7099 15.3027 15.3033Z" fill="black"/>
</g>
</g>
<defs>
<clipPath id="clip0_11035_728">
<rect width="20" height="20" fill="white" transform="matrix(0 1 -1 0 20 0)"/>
</clipPath>
</defs>
</svg>
