<svg width="30" height="30" viewBox="0 0 30 30" fill="none" xmlns="http://www.w3.org/2000/svg">
<circle cx="15" cy="15" r="15" fill="#FA5A7D"/>
<path d="M10.4706 11.2941C10.4706 10.4205 10.8176 9.58259 11.4354 8.96482C12.0532 8.34706 12.8911 8 13.7647 8C14.6384 8 15.4762 8.34706 16.094 8.96482C16.7118 9.58259 17.0588 10.4205 17.0588 11.2941C17.0588 12.1678 16.7118 13.0056 16.094 13.6234C15.4762 14.2412 14.6384 14.5882 13.7647 14.5882C12.8911 14.5882 12.0532 14.2412 11.4354 13.6234C10.8176 13.0056 10.4706 12.1678 10.4706 11.2941ZM8 17.0588C8 16.1422 8.74365 15.4118 9.65447 15.4118H14.7999C14.1294 16.2225 13.7632 17.242 13.7647 18.2941C13.7647 19.3672 14.1378 20.3529 14.7612 21.1295C14.4356 21.1608 14.1035 21.1765 13.7647 21.1765C12.2371 21.1765 10.814 20.8586 9.75824 20.1858C8.686 19.5022 8 18.4506 8 17.0588ZM22 18.2941C22 19.277 21.6096 20.2196 20.9146 20.9146C20.2196 21.6096 19.277 22 18.2941 22C17.3113 22 16.3687 21.6096 15.6737 20.9146C14.9787 20.2196 14.5882 19.277 14.5882 18.2941C14.5882 17.3113 14.9787 16.3687 15.6737 15.6737C16.3687 14.9787 17.3113 14.5882 18.2941 14.5882C19.277 14.5882 20.2196 14.9787 20.9146 15.6737C21.6096 16.3687 22 17.3113 22 18.2941ZM19.8209 17.3504C19.8983 17.273 19.9417 17.1682 19.9417 17.0588C19.9417 16.9495 19.8983 16.8446 19.8209 16.7673C19.7436 16.69 19.6388 16.6465 19.5294 16.6465C19.4201 16.6465 19.3152 16.69 19.2379 16.7673L18.2941 17.7119L17.3504 16.7673C17.273 16.69 17.1682 16.6465 17.0588 16.6465C16.9495 16.6465 16.8446 16.69 16.7673 16.7673C16.69 16.8446 16.6465 16.9495 16.6465 17.0588C16.6465 17.1682 16.69 17.273 16.7673 17.3504L17.7119 18.2941L16.7673 19.2379C16.729 19.2762 16.6986 19.3216 16.6779 19.3716C16.6572 19.4217 16.6465 19.4753 16.6465 19.5294C16.6465 19.5836 16.6572 19.6372 16.6779 19.6872C16.6986 19.7372 16.729 19.7827 16.7673 19.8209C16.8056 19.8592 16.851 19.8896 16.901 19.9103C16.9511 19.931 17.0047 19.9417 17.0588 19.9417C17.113 19.9417 17.1666 19.931 17.2166 19.9103C17.2666 19.8896 17.3121 19.8592 17.3504 19.8209L18.2941 18.8764L19.2379 19.8209C19.2762 19.8592 19.3216 19.8896 19.3716 19.9103C19.4217 19.931 19.4753 19.9417 19.5294 19.9417C19.5836 19.9417 19.6372 19.931 19.6872 19.9103C19.7372 19.8896 19.7827 19.8592 19.8209 19.8209C19.8592 19.7827 19.8896 19.7372 19.9103 19.6872C19.931 19.6372 19.9417 19.5836 19.9417 19.5294C19.9417 19.4753 19.931 19.4217 19.9103 19.3716C19.8896 19.3216 19.8592 19.2762 19.8209 19.2379L18.8764 18.2941L19.8209 17.3504Z" fill="white"/>
</svg>
