<svg width="26" height="26" viewBox="0 0 26 26" fill="none" xmlns="http://www.w3.org/2000/svg">
<rect width="26" height="26" rx="8" fill="#169458"/>
<path d="M21 12.4964L19.2255 10.5041L19.4727 7.8667L16.8473 7.27903L15.4727 5L13 6.04634L10.5273 5L9.15273 7.27903L6.52727 7.85953L6.77455 10.4969L5 12.4964L6.77455 14.4888L6.52727 17.1333L9.15273 17.721L10.5273 20L13 18.9465L15.4727 19.9928L16.8473 17.7138L19.4727 17.1261L19.2255 14.4888L21 12.4964ZM11.5455 16.0798L8.63636 13.2131L9.66182 12.2026L11.5455 14.0516L16.3382 9.32871L17.3636 10.3464L11.5455 16.0798Z" fill="white"/>
</svg>
