<svg width="44" height="30" viewBox="0 0 44 30" fill="none" xmlns="http://www.w3.org/2000/svg">
<rect x="0.5" y="0.5" width="43" height="29" rx="5.5" fill="white"/>
<rect x="0.5" y="0.5" width="43" height="29" rx="5.5" stroke="#6F46C1"/>
<path d="M22.1249 7.21151L26.3964 11.2655L22.1174 15.326C22.0415 15.4053 21.9997 15.511 22.0008 15.6207C22.0019 15.7304 22.0459 15.8353 22.1234 15.913C22.2779 16.065 22.5599 16.062 22.7079 15.914L27.2724 11.5735C27.3106 11.5355 27.3406 11.49 27.3604 11.4398C27.3802 11.3896 27.3894 11.3359 27.3874 11.282C27.3924 11.2214 27.3842 11.1604 27.3633 11.1032C27.3424 11.0461 27.3093 10.9941 27.2664 10.951L22.7024 6.60951C22.6258 6.5384 22.5249 6.49923 22.4204 6.50001C22.307 6.50017 22.1981 6.54405 22.1164 6.62251C22.0402 6.70218 21.9985 6.80857 22 6.91875C22.0016 7.02893 22.0465 7.13408 22.1249 7.21151Z" fill="#6F46C1"/>
<path d="M18.1249 7.21151L22.3964 11.2655L18.1174 15.326C18.0415 15.4053 17.9997 15.511 18.0008 15.6207C18.0019 15.7304 18.0459 15.8353 18.1234 15.913C18.2779 16.065 18.5599 16.062 18.7079 15.914L23.2724 11.5735C23.3106 11.5355 23.3406 11.49 23.3604 11.4398C23.3802 11.3896 23.3894 11.3359 23.3874 11.282C23.3924 11.2214 23.3842 11.1604 23.3633 11.1032C23.3424 11.0461 23.3093 10.9941 23.2664 10.951L18.7024 6.60951C18.6258 6.5384 18.5249 6.49923 18.4204 6.50001C18.307 6.50017 18.1981 6.54405 18.1164 6.62251C18.0402 6.70218 17.9985 6.80857 18 6.91875C18.0016 7.02893 18.0465 7.13408 18.1249 7.21151Z" fill="#6F46C1"/>
<path d="M16.155 21.5L17.385 18.28H18.255L19.485 21.5H18.645L18.355 20.77H17.28L16.995 21.5H16.155ZM17.39 20.175H18.245L17.815 19.055L17.39 20.175ZM19.7781 21.5V19.74H19.4631V19.13H19.7781V18.935C19.7781 18.6783 19.8514 18.4667 19.9981 18.3C20.1448 18.1333 20.3631 18.05 20.6531 18.05C20.7731 18.05 20.8798 18.06 20.9731 18.08C21.0664 18.0967 21.1548 18.1217 21.2381 18.155V18.695C21.1881 18.6783 21.1398 18.665 21.0931 18.655C21.0464 18.645 20.9948 18.64 20.9381 18.64C20.8081 18.64 20.7164 18.665 20.6631 18.715C20.6098 18.7617 20.5831 18.84 20.5831 18.95V19.13H21.1681L21.1331 19.74H20.5831V21.5H19.7781ZM22.3667 21.55C22.0734 21.55 21.8567 21.475 21.7167 21.325C21.5801 21.175 21.5117 20.9683 21.5117 20.705V19.74H21.1917V19.13H21.5117V18.635L22.3167 18.42V19.13H22.8917L22.8567 19.74H22.3167V20.65C22.3167 20.7633 22.3451 20.8433 22.4017 20.89C22.4584 20.9333 22.5434 20.955 22.6567 20.955C22.7534 20.955 22.8517 20.9383 22.9517 20.905V21.45C22.7951 21.5167 22.6001 21.55 22.3667 21.55ZM24.5318 21.55C24.1185 21.55 23.7868 21.4483 23.5368 21.245C23.2868 21.0383 23.1618 20.7283 23.1618 20.315C23.1618 19.9383 23.2652 19.6383 23.4718 19.415C23.6785 19.1917 23.9885 19.08 24.4018 19.08C24.7785 19.08 25.0702 19.1767 25.2768 19.37C25.4835 19.5633 25.5868 19.8233 25.5868 20.15V20.575H23.9068C23.9435 20.7317 24.0285 20.8417 24.1618 20.905C24.2985 20.965 24.4835 20.995 24.7168 20.995C24.8468 20.995 24.9785 20.9833 25.1118 20.96C25.2485 20.9367 25.3618 20.9067 25.4518 20.87V21.395C25.3385 21.4483 25.2035 21.4867 25.0468 21.51C24.8902 21.5367 24.7185 21.55 24.5318 21.55ZM23.9068 20.11H24.8868V20.005C24.8868 19.8883 24.8518 19.7967 24.7818 19.73C24.7118 19.66 24.5935 19.625 24.4268 19.625C24.2335 19.625 24.0985 19.665 24.0218 19.745C23.9452 19.8217 23.9068 19.9433 23.9068 20.11ZM25.9962 21.5V19.13H26.7612L26.7862 19.35C26.8895 19.2867 27.0179 19.23 27.1712 19.18C27.3245 19.1267 27.4779 19.0933 27.6312 19.08V19.685C27.5445 19.695 27.4479 19.7117 27.3412 19.735C27.2379 19.755 27.1379 19.78 27.0412 19.81C26.9479 19.84 26.8679 19.8717 26.8012 19.905V21.5H25.9962Z" fill="#6F46C1"/>
</svg>
