<svg width="13" height="16" viewBox="0 0 13 16" fill="none" xmlns="http://www.w3.org/2000/svg">
<path d="M4.3 15H1V1H10.9V6.92308M2.65 4.23077H9.25M2.65 6.38462H7.05M8.7 9.61539V11.7692L10.35 13.3846M12 11.7692C12 12.6261 11.6523 13.4478 11.0335 14.0537C10.4146 14.6596 9.57521 15 8.7 15C7.82479 15 6.98542 14.6596 6.36655 14.0537C5.74768 13.4478 5.4 12.6261 5.4 11.7692C5.4 10.9124 5.74768 10.0906 6.36655 9.48473C6.98542 8.87885 7.82479 8.53846 8.7 8.53846C9.57521 8.53846 10.4146 8.87885 11.0335 9.48473C11.6523 10.0906 12 10.9124 12 11.7692Z" stroke="black" stroke-width="1.4" stroke-linejoin="round"/>
</svg>
