<svg width="30" height="30" viewBox="0 0 30 30" fill="none" xmlns="http://www.w3.org/2000/svg">
<circle cx="15" cy="15" r="15" fill="#3CD856"/>
<path d="M15.4189 11.4883C14.3136 11.8274 13.3316 12.4826 12.5942 13.3731C12.0405 13.3207 11.5168 13.0981 11.0947 12.7359C10.6727 12.3738 10.3732 11.8898 10.2373 11.3506C10.1014 10.8113 10.1358 10.2432 10.3358 9.72423C10.5358 9.20531 10.8915 8.76104 11.3541 8.45247C11.8168 8.14391 12.3636 7.98618 12.9195 8.00095C13.4754 8.01573 14.0131 8.20229 14.4587 8.53499C14.9042 8.8677 15.2359 9.33024 15.408 9.85906C15.5802 10.3879 15.5843 10.957 15.42 11.4883M9.61538 14.4609H11.8769C11.4634 15.2686 11.2308 16.1841 11.2308 17.1534C11.2288 18.5078 11.6927 19.8217 12.5446 20.8745C9.67354 20.5353 8 18.4782 8 16.6149V16.3457C8 15.4894 8.72369 14.4609 9.61538 14.4609ZM22 17.1534C22 17.7899 21.8747 18.4201 21.6311 19.0081C21.3876 19.5961 21.0306 20.1304 20.5806 20.5805C20.1306 21.0305 19.5964 21.3875 19.0084 21.6311C18.4204 21.8746 17.7903 22 17.1538 22C16.5174 22 15.8873 21.8746 15.2993 21.6311C14.7113 21.3875 14.1771 21.0305 13.7271 20.5805C13.2771 20.1304 12.9201 19.5961 12.6766 19.0081C12.433 18.4201 12.3077 17.7899 12.3077 17.1534C12.3077 15.868 12.8183 14.6353 13.7271 13.7264C14.6359 12.8175 15.8686 12.3068 17.1538 12.3068C18.4391 12.3068 19.6718 12.8175 20.5806 13.7264C21.4894 14.6353 22 15.868 22 17.1534ZM19.6889 15.1566C19.6389 15.1065 19.5795 15.0667 19.5141 15.0395C19.4486 15.0124 19.3785 14.9984 19.3077 14.9984C19.2369 14.9984 19.1667 15.0124 19.1013 15.0395C19.0359 15.0667 18.9765 15.1065 18.9265 15.1566L16.0769 18.0075L15.3812 17.3107C15.3312 17.2606 15.2717 17.2209 15.2063 17.1938C15.1409 17.1667 15.0708 17.1527 15 17.1527C14.9292 17.1527 14.8591 17.1667 14.7937 17.1938C14.7283 17.2209 14.6688 17.2606 14.6188 17.3107C14.5687 17.3607 14.529 17.4202 14.5019 17.4856C14.4748 17.551 14.4609 17.6211 14.4609 17.6919C14.4609 17.7627 14.4748 17.8329 14.5019 17.8983C14.529 17.9637 14.5687 18.0231 14.6188 18.0732L15.6957 19.1502C15.7457 19.2004 15.8051 19.2402 15.8705 19.2673C15.936 19.2944 16.0061 19.3084 16.0769 19.3084C16.1477 19.3084 16.2179 19.2944 16.2833 19.2673C16.3487 19.2402 16.4081 19.2004 16.4582 19.1502L19.6889 15.9192C19.7391 15.8691 19.7789 15.8097 19.806 15.7443C19.8331 15.6789 19.8471 15.6087 19.8471 15.5379C19.8471 15.4671 19.8331 15.3969 19.806 15.3315C19.7789 15.2661 19.7391 15.2067 19.6889 15.1566Z" fill="white"/>
</svg>
