<svg width="44" height="30" viewBox="0 0 44 30" fill="none" xmlns="http://www.w3.org/2000/svg">
<rect x="0.5" y="0.5" width="43" height="29" rx="5.5" fill="white"/>
<rect x="0.5" y="0.5" width="43" height="29" rx="5.5" stroke="#6F46C1"/>
<path d="M21.8751 7.21151L17.6036 11.2655L21.8826 15.326C21.9585 15.4053 22.0003 15.511 21.9992 15.6207C21.9981 15.7304 21.9541 15.8353 21.8766 15.913C21.7221 16.065 21.4401 16.062 21.2921 15.914L16.7276 11.5735C16.6894 11.5355 16.6594 11.49 16.6396 11.4398C16.6198 11.3896 16.6106 11.3359 16.6126 11.282C16.6076 11.2214 16.6158 11.1604 16.6367 11.1032C16.6576 11.0461 16.6907 10.9941 16.7336 10.951L21.2976 6.60951C21.3742 6.5384 21.4751 6.49923 21.5796 6.50001C21.693 6.50017 21.8019 6.54405 21.8836 6.62251C21.9598 6.70218 22.0015 6.80857 22 6.91875C21.9984 7.02893 21.9535 7.13408 21.8751 7.21151Z" fill="#6F46C1"/>
<path d="M25.8751 7.21151L21.6036 11.2655L25.8826 15.326C25.9585 15.4053 26.0003 15.511 25.9992 15.6207C25.9981 15.7304 25.9541 15.8353 25.8766 15.913C25.7221 16.065 25.4401 16.062 25.2921 15.914L20.7276 11.5735C20.6894 11.5355 20.6594 11.49 20.6396 11.4398C20.6198 11.3896 20.6106 11.3359 20.6126 11.282C20.6076 11.2214 20.6158 11.1604 20.6367 11.1032C20.6576 11.0461 20.6907 10.9941 20.7336 10.951L25.2976 6.60951C25.3742 6.5384 25.4751 6.49923 25.5796 6.50001C25.693 6.50017 25.8019 6.54405 25.8836 6.62251C25.9598 6.70218 26.0015 6.80857 26 6.91875C25.9984 7.02893 25.9535 7.13408 25.8751 7.21151Z" fill="#6F46C1"/>
<path d="M14.255 21.5001V18.2801H15.955C16.2783 18.2801 16.5217 18.3568 16.685 18.5101C16.8517 18.6635 16.935 18.8801 16.935 19.1601C16.935 19.3301 16.9017 19.4735 16.835 19.5901C16.7717 19.7035 16.6867 19.7918 16.58 19.8551C16.7267 19.9085 16.8417 19.9868 16.925 20.0901C17.0083 20.1935 17.05 20.3485 17.05 20.5551C17.05 20.8618 16.96 21.0968 16.78 21.2601C16.6 21.4201 16.3417 21.5001 16.005 21.5001H14.255ZM15.06 19.5901H15.715C15.855 19.5901 15.9567 19.5585 16.02 19.4951C16.0833 19.4318 16.115 19.3435 16.115 19.2301C16.115 19.1068 16.0833 19.0151 16.02 18.9551C15.9567 18.8918 15.8417 18.8601 15.675 18.8601H15.06V19.5901ZM15.06 20.9251H15.795C15.9417 20.9251 16.05 20.8951 16.12 20.8351C16.1933 20.7751 16.23 20.6685 16.23 20.5151C16.23 20.3918 16.195 20.3001 16.125 20.2401C16.055 20.1768 15.935 20.1451 15.765 20.1451H15.06V20.9251ZM18.7281 21.5501C18.3148 21.5501 17.9831 21.4485 17.7331 21.2451C17.4831 21.0385 17.3581 20.7285 17.3581 20.3151C17.3581 19.9385 17.4615 19.6385 17.6681 19.4151C17.8748 19.1918 18.1848 19.0801 18.5981 19.0801C18.9748 19.0801 19.2665 19.1768 19.4731 19.3701C19.6798 19.5635 19.7831 19.8235 19.7831 20.1501V20.5751H18.1031C18.1398 20.7318 18.2248 20.8418 18.3581 20.9051C18.4948 20.9651 18.6798 20.9951 18.9131 20.9951C19.0431 20.9951 19.1748 20.9835 19.3081 20.9601C19.4448 20.9368 19.5581 20.9068 19.6481 20.8701V21.3951C19.5348 21.4485 19.3998 21.4868 19.2431 21.5101C19.0865 21.5368 18.9148 21.5501 18.7281 21.5501ZM18.1031 20.1101H19.0831V20.0051C19.0831 19.8885 19.0481 19.7968 18.9781 19.7301C18.9081 19.6601 18.7898 19.6251 18.6231 19.6251C18.4298 19.6251 18.2948 19.6651 18.2181 19.7451C18.1415 19.8218 18.1031 19.9435 18.1031 20.1101ZM20.3025 21.5001V19.7401H19.9875V19.1301H20.3025V18.9351C20.3025 18.6785 20.3758 18.4668 20.5225 18.3001C20.6692 18.1335 20.8875 18.0501 21.1775 18.0501C21.2975 18.0501 21.4042 18.0601 21.4975 18.0801C21.5908 18.0968 21.6792 18.1218 21.7625 18.1551V18.6951C21.7125 18.6785 21.6642 18.6651 21.6175 18.6551C21.5708 18.6451 21.5192 18.6401 21.4625 18.6401C21.3325 18.6401 21.2408 18.6651 21.1875 18.7151C21.1342 18.7618 21.1075 18.8401 21.1075 18.9501V19.1301H21.6925L21.6575 19.7401H21.1075V21.5001H20.3025ZM23.1267 21.5501C22.6701 21.5501 22.3334 21.4451 22.1167 21.2351C21.9001 21.0218 21.7917 20.7151 21.7917 20.3151C21.7917 19.9185 21.9001 19.6135 22.1167 19.4001C22.3367 19.1868 22.6734 19.0801 23.1267 19.0801C23.5834 19.0801 23.9201 19.1868 24.1367 19.4001C24.3567 19.6135 24.4667 19.9185 24.4667 20.3151C24.4667 20.7151 24.3584 21.0218 24.1417 21.2351C23.9251 21.4451 23.5867 21.5501 23.1267 21.5501ZM23.1267 20.9201C23.3134 20.9201 23.4467 20.8735 23.5267 20.7801C23.6067 20.6868 23.6467 20.5318 23.6467 20.3151C23.6467 20.0985 23.6067 19.9435 23.5267 19.8501C23.4467 19.7568 23.3134 19.7101 23.1267 19.7101C22.9434 19.7101 22.8117 19.7568 22.7317 19.8501C22.6517 19.9435 22.6117 20.0985 22.6117 20.3151C22.6117 20.5318 22.6517 20.6868 22.7317 20.7801C22.8117 20.8735 22.9434 20.9201 23.1267 20.9201ZM24.8751 21.5001V19.1301H25.6401L25.6651 19.3501C25.7685 19.2868 25.8968 19.2301 26.0501 19.1801C26.2035 19.1268 26.3568 19.0935 26.5101 19.0801V19.6851C26.4235 19.6951 26.3268 19.7118 26.2201 19.7351C26.1168 19.7551 26.0168 19.7801 25.9201 19.8101C25.8268 19.8401 25.7468 19.8718 25.6801 19.9051V21.5001H24.8751ZM27.9859 21.5501C27.5726 21.5501 27.2409 21.4485 26.9909 21.2451C26.7409 21.0385 26.6159 20.7285 26.6159 20.3151C26.6159 19.9385 26.7193 19.6385 26.9259 19.4151C27.1326 19.1918 27.4426 19.0801 27.8559 19.0801C28.2326 19.0801 28.5243 19.1768 28.7309 19.3701C28.9376 19.5635 29.0409 19.8235 29.0409 20.1501V20.5751H27.3609C27.3976 20.7318 27.4826 20.8418 27.6159 20.9051C27.7526 20.9651 27.9376 20.9951 28.1709 20.9951C28.3009 20.9951 28.4326 20.9835 28.5659 20.9601C28.7026 20.9368 28.8159 20.9068 28.9059 20.8701V21.3951C28.7926 21.4485 28.6576 21.4868 28.5009 21.5101C28.3443 21.5368 28.1726 21.5501 27.9859 21.5501ZM27.3609 20.1101H28.3409V20.0051C28.3409 19.8885 28.3059 19.7968 28.2359 19.7301C28.1659 19.6601 28.0476 19.6251 27.8809 19.6251C27.6876 19.6251 27.5526 19.6651 27.4759 19.7451C27.3993 19.8218 27.3609 19.9435 27.3609 20.1101Z" fill="#6F46C1"/>
</svg>
