<svg width="19" height="18" viewBox="0 0 19 18" fill="none" xmlns="http://www.w3.org/2000/svg">
<path d="M9.6569 7.40106L13.5203 8.43622M9.0354 9.71938L11.3534 10.3402M16.4838 9.51859C15.9998 11.3225 15.7583 12.2249 15.2104 12.8097C14.778 13.2714 14.2186 13.5946 13.6026 13.7385C13.5253 13.7566 13.4467 13.7705 13.3667 13.7801C12.6348 13.8705 11.7414 13.6313 10.116 13.1961C8.31232 12.7121 7.41007 12.4705 6.82537 11.9225C6.36358 11.4899 6.04041 10.9301 5.89672 10.3138C5.71435 9.53299 5.95591 8.63142 6.43983 6.82748L6.85336 5.28193L7.04853 4.55795C7.41247 3.22519 7.65723 2.49161 8.12675 1.99003C8.5592 1.5286 9.11866 1.20569 9.73449 1.06206C10.5152 0.879665 11.4174 1.12126 13.2219 1.60524C15.0248 2.08843 15.9271 2.33002 16.5118 2.8772C16.9737 3.31003 17.2969 3.87017 17.4404 4.48675C17.5692 5.03873 17.486 5.65151 17.2556 6.60108" stroke="#36B8B8" stroke-width="1.5" stroke-linecap="round"/>
<path d="M2.51728 12.7185C3.0004 14.5224 3.24276 15.4248 3.79067 16.0096C4.22301 16.4713 4.78248 16.7945 5.3984 16.9384C6.17907 17.1199 7.08132 16.8784 8.88582 16.3952C10.6887 15.912 11.591 15.6704 12.1757 15.1224C12.5689 14.754 12.8627 14.2923 13.0299 13.7801M6.71178 4.55714C6.43076 4.63021 6.12015 4.71287 5.77994 4.80514C3.97623 5.28832 3.07398 5.52991 2.48928 6.0771C2.02735 6.50993 1.70417 7.07007 1.56064 7.68664C1.43186 8.23863 1.51504 8.85141 1.7454 9.80098" stroke="#36B8B8" stroke-width="1.5" stroke-linecap="round" stroke-linejoin="round"/>
</svg>
