<svg width="26" height="26" viewBox="0 0 26 26" fill="none" xmlns="http://www.w3.org/2000/svg">
<rect width="26" height="26" rx="8" fill="#169458"/>
<mask id="mask0_9131_790" style="mask-type:alpha" maskUnits="userSpaceOnUse" x="4" y="4" width="18" height="18">
<rect x="4" y="4" width="18" height="18" fill="#D9D9D9"/>
</mask>
<g mask="url(#mask0_9131_790)">
<path d="M7 19.75V16.5625L16.8813 6.7C17.0313 6.55 17.2 6.4375 17.3875 6.3625C17.575 6.2875 17.7625 6.25 17.95 6.25C18.15 6.25 18.3406 6.2875 18.5219 6.3625C18.7031 6.4375 18.8625 6.55 19 6.7L20.05 7.75C20.2 7.8875 20.3125 8.04688 20.3875 8.22813C20.4625 8.40937 20.5 8.6 20.5 8.8C20.5 8.9875 20.4625 9.175 20.3875 9.3625C20.3125 9.55 20.2 9.71875 20.05 9.86875L10.1875 19.75H7ZM8.5 18.25H9.55L16.9188 10.9L16.3938 10.3562L15.85 9.83125L8.5 17.2V18.25ZM16.3938 10.3562L15.85 9.83125L16.9188 10.9L16.3938 10.3562ZM14.5 19.75C15.425 19.75 16.2813 19.5188 17.0688 19.0563C17.8563 18.5938 18.25 17.95 18.25 17.125C18.25 16.675 18.1313 16.2875 17.8938 15.9625C17.6563 15.6375 17.3375 15.3562 16.9375 15.1187L15.8313 16.225C16.1188 16.35 16.3438 16.4875 16.5063 16.6375C16.6688 16.7875 16.75 16.95 16.75 17.125C16.75 17.4125 16.5219 17.6719 16.0656 17.9031C15.6094 18.1344 15.0875 18.25 14.5 18.25C14.2875 18.25 14.1094 18.3219 13.9656 18.4656C13.8219 18.6094 13.75 18.7875 13.75 19C13.75 19.2125 13.8219 19.3906 13.9656 19.5344C14.1094 19.6781 14.2875 19.75 14.5 19.75ZM7.43125 14.0125L8.55625 12.8875C8.30625 12.7875 8.10938 12.6844 7.96563 12.5781C7.82188 12.4719 7.75 12.3625 7.75 12.25C7.75 12.1 7.8625 11.95 8.0875 11.8C8.3125 11.65 8.7875 11.4187 9.5125 11.1062C10.6125 10.6312 11.3438 10.2 11.7063 9.8125C12.0688 9.425 12.25 8.9875 12.25 8.5C12.25 7.8125 11.975 7.26562 11.425 6.85938C10.875 6.45312 10.15 6.25 9.25 6.25C8.6875 6.25 8.18438 6.35 7.74063 6.55C7.29688 6.75 6.95625 6.99375 6.71875 7.28125C6.58125 7.44375 6.525 7.625 6.55 7.825C6.575 8.025 6.66875 8.1875 6.83125 8.3125C6.99375 8.45 7.175 8.50625 7.375 8.48125C7.575 8.45625 7.74375 8.375 7.88125 8.2375C8.05625 8.0625 8.25 7.9375 8.4625 7.8625C8.675 7.7875 8.9375 7.75 9.25 7.75C9.7625 7.75 10.1406 7.825 10.3844 7.975C10.6281 8.125 10.75 8.3 10.75 8.5C10.75 8.675 10.6406 8.83438 10.4219 8.97813C10.2031 9.12188 9.7 9.375 8.9125 9.7375C7.9125 10.175 7.21875 10.5719 6.83125 10.9281C6.44375 11.2844 6.25 11.725 6.25 12.25C6.25 12.65 6.35625 12.9906 6.56875 13.2719C6.78125 13.5531 7.06875 13.8 7.43125 14.0125Z" fill="white"/>
</g>
</svg>
