<svg width="16" height="11" viewBox="0 0 16 11" fill="none" xmlns="http://www.w3.org/2000/svg">
<path d="M4.94964 8.91589L1.6133 5.85425C1.52606 5.77321 1.42215 5.70887 1.30761 5.66496C1.19307 5.62105 1.07017 5.59844 0.946032 5.59844C0.821897 5.59844 0.698995 5.62105 0.584454 5.66496C0.469912 5.70887 0.366008 5.77321 0.278765 5.85425C0.190457 5.93431 0.120345 6.02966 0.0724925 6.13477C0.0246403 6.23988 0 6.35266 0 6.46658C0 6.58049 0.0246403 6.69327 0.0724925 6.79839C0.120345 6.9035 0.190457 6.99885 0.278765 7.07891L4.27284 10.7441C4.6446 11.0853 5.24514 11.0853 5.6169 10.7441L15.7212 1.48047C15.8095 1.40041 15.8797 1.30506 15.9275 1.19995C15.9754 1.09484 16 0.982057 16 0.868142C16 0.754227 15.9754 0.641445 15.9275 0.536334C15.8797 0.431222 15.8095 0.335873 15.7212 0.255813C15.634 0.174776 15.5301 0.110436 15.4155 0.0665237C15.301 0.0226114 15.1781 0 15.054 0C14.9298 0 14.8069 0.0226114 14.6924 0.0665237C14.5778 0.110436 14.4739 0.174776 14.3867 0.255813L4.94964 8.91589Z" fill="#169458"/>
</svg>
