<svg width="12" height="14" viewBox="0 0 12 14" fill="none" xmlns="http://www.w3.org/2000/svg">
<path d="M10.2639 11.003C10.3903 10.8626 10.5599 10.7811 10.7383 10.7751C10.9166 10.769 11.0904 10.8388 11.2242 10.9704C11.358 11.1019 11.4419 11.2853 11.4589 11.4832C11.4758 11.6812 11.4245 11.879 11.3153 12.0363L11.257 12.1099L10.2035 13.284C10 13.511 9.75842 13.6911 9.49246 13.8139C9.2265 13.9368 8.94142 14 8.65353 14C8.36563 14 8.08056 13.9368 7.8146 13.8139C7.54864 13.6911 7.30701 13.511 7.10351 13.284C6.96716 13.1317 6.78533 13.0406 6.59263 13.0281C6.39992 13.0155 6.20981 13.0824 6.05846 13.2159L5.98963 13.284L5.63848 13.6754C5.51209 13.8158 5.34249 13.8973 5.16414 13.9034C4.98579 13.9095 4.81205 13.8396 4.67821 13.7081C4.54437 13.5766 4.46047 13.3932 4.44355 13.1952C4.42663 12.9972 4.47796 12.7995 4.5871 12.6422L4.6454 12.5686L4.99656 12.1772C5.20005 11.9502 5.44169 11.7702 5.70765 11.6473C5.97361 11.5245 6.25868 11.4612 6.54657 11.4612C6.83447 11.4612 7.11954 11.5245 7.3855 11.6473C7.65146 11.7702 7.89309 11.9502 8.09659 12.1772C8.23294 12.3295 8.41477 12.4206 8.60748 12.4331C8.80018 12.4457 8.9903 12.3788 9.14164 12.2453L9.21047 12.1772L10.2639 11.003ZM8.99275 0.584317C9.31354 0.220995 9.74886 0.0115211 10.2061 0.000461204C10.6633 -0.0105987 11.1064 0.177629 11.441 0.525097C11.7757 0.872566 11.9755 1.35185 11.9979 1.86098C12.0203 2.37011 11.8636 2.8689 11.5611 3.25123L11.4754 3.35299L3.34541 12.4136C3.24429 12.5264 3.12361 12.6151 2.99074 12.6743L2.8889 12.7126L0.896422 13.3443C0.782162 13.3809 0.661432 13.3846 0.545541 13.355C0.429651 13.3255 0.322395 13.2636 0.233822 13.1752C0.14525 13.0868 0.0782599 12.9748 0.0391297 12.8497C-5.41582e-07 12.7245 -0.00999028 12.5904 0.0100963 12.4598L0.0276541 12.376L0.594425 10.1545C0.633739 10.0012 0.700648 9.85846 0.791074 9.73494L0.862711 9.6457L8.99275 0.584317Z" fill="black"/>
</svg>
