<svg width="16" height="16" viewBox="0 0 16 16" fill="none" xmlns="http://www.w3.org/2000/svg">
<path d="M4.0752 13.056C5.30654 14.0132 6.84504 14.4879 8.40165 14.3908C9.95826 14.2937 11.4258 13.6315 12.5287 12.5287C13.6315 11.4258 14.2937 9.95826 14.3908 8.40165C14.4879 6.84504 14.0132 5.30654 13.056 4.0752L4.0752 13.056ZM2.944 11.9248L11.9248 2.944C10.6935 1.98678 9.15497 1.51213 7.59835 1.60923C6.04174 1.70633 4.57416 2.3685 3.47133 3.47133C2.3685 4.57416 1.70633 6.04174 1.60923 7.59835C1.51213 9.15497 1.98678 10.6935 2.944 11.9248ZM8 16C3.5816 16 0 12.4184 0 8C0 3.5816 3.5816 0 8 0C12.4184 0 16 3.5816 16 8C16 12.4184 12.4184 16 8 16Z" fill="#D20006"/>
</svg>
