<svg width="32" height="32" viewBox="0 0 32 32" fill="none" xmlns="http://www.w3.org/2000/svg">
<path d="M31.7145 16.0252C31.7145 24.7042 24.6788 31.7399 15.9998 31.7399C7.32086 31.7399 0.285156 24.7042 0.285156 16.0252C0.285156 7.34625 7.32086 0.310547 15.9998 0.310547C24.6788 0.310547 31.7145 7.34625 31.7145 16.0252Z" fill="#3CD856"/>
<path d="M14.5328 9.73828C13.7548 9.73828 13.0087 10.0571 12.4586 10.6247C11.9085 11.1923 11.5994 11.9621 11.5994 12.7648C11.5994 13.5675 11.9085 14.3373 12.4586 14.9049C13.0087 15.4725 13.7548 15.7913 14.5328 15.7913C15.3108 15.7913 16.0569 15.4725 16.6071 14.9049C17.1572 14.3373 17.4662 13.5675 17.4662 12.7648C17.4662 11.9621 17.1572 11.1923 16.6071 10.6247C16.0569 10.0571 15.3108 9.73828 14.5328 9.73828ZM20.033 16.548C18.1996 16.548 16.7329 18.0612 16.7329 19.9528C16.7329 21.8444 18.1996 23.3577 20.033 23.3577C21.8663 23.3577 23.3331 21.8444 23.3331 19.9528C23.3331 18.0612 21.8663 16.548 20.033 16.548ZM14.5328 17.3046C11.2914 17.3046 8.66602 18.659 8.66602 20.3311V21.8444H15.6329C15.3908 21.245 15.2662 20.6021 15.2662 19.9528C15.2693 19.0557 15.5102 18.1765 15.9629 17.4105C15.5009 17.35 15.0315 17.3046 14.5328 17.3046ZM20.033 17.6829C21.2503 17.6829 22.233 18.6968 22.233 19.9528C22.233 20.3765 22.123 20.77 21.925 21.0878L18.9329 18.0007C19.2409 17.7964 19.6223 17.6829 20.033 17.6829ZM18.1409 18.8179L21.133 21.9049C20.825 22.1092 20.4436 22.2227 20.033 22.2227C18.8156 22.2227 17.8329 21.2088 17.8329 19.9528C17.8329 19.5291 17.9429 19.1357 18.1409 18.8179Z" fill="white"/>
</svg>
