<svg width="14" height="16" viewBox="0 0 14 16" fill="none" xmlns="http://www.w3.org/2000/svg">
<path d="M0.846191 0V16H13.1539V4.06154L12.9693 3.87692L9.27696 0.184615L9.09235 0H0.846191ZM2.07696 1.23077H8.23081V4.92308H11.9231V14.7692H2.07696V1.23077ZM9.46158 2.09231L11.0616 3.69231H9.46158V2.09231ZM3.92311 4.92308V10.4615H5.15388V8.61539H5.52311L7.06158 11.3231L5.76927 13.5385H7.00004L7.61542 12.4308L8.23081 13.5385H9.46158L8.23081 11.3231L9.46158 9.23077H8.23081L7.61542 10.2769L6.56927 8.43077C7.18465 8.12308 7.55388 7.50769 7.55388 6.76923C7.55388 5.78462 6.69235 4.92308 5.70773 4.92308H3.92311ZM5.15388 6.15385H5.76927C6.1385 6.15385 6.38465 6.4 6.38465 6.76923C6.38465 7.13846 6.1385 7.38462 5.76927 7.38462H5.15388V6.15385Z" fill="#36B8B8"/>
</svg>
