<svg width="30" height="30" viewBox="0 0 30 30" fill="none" xmlns="http://www.w3.org/2000/svg">
<circle cx="15" cy="15" r="15" fill="#0072FF"/>
<path d="M7.60784 7.57952C7.60115 7.56727 7.59692 7.55379 7.59539 7.53986C7.59386 7.52594 7.59506 7.51184 7.59893 7.49839C7.6028 7.48494 7.60926 7.47241 7.61793 7.4615C7.6266 7.4506 7.63732 7.44155 7.64946 7.43487L8.41244 7.01315C8.42453 7.00639 8.43782 7.00213 8.45155 7.00062C8.46528 6.99911 8.47916 7.00038 8.4924 7.00435C8.50564 7.00833 8.51797 7.01493 8.52867 7.02378C8.53938 7.03263 8.54824 7.04354 8.55476 7.0559L8.86072 7.62227C10.0175 7.2704 11.2992 7.77083 11.9011 8.88923L10.4226 9.70816C10.5401 9.92664 10.5671 10.1835 10.4979 10.4222C10.4287 10.6609 10.2688 10.862 10.0535 10.9811C9.83815 11.1003 9.58499 11.1277 9.34969 11.0575C9.11439 10.9873 8.91624 10.8251 8.79881 10.6066L7.31986 11.4245C6.71744 10.3066 6.99412 8.94241 7.91329 8.14615L7.60784 7.57952ZM18.0242 17.7815H23V23H18.0242V17.7815ZM17.4539 20.3897H13.4353C13.0985 20.3896 12.7755 20.2539 12.5372 20.0124C12.299 19.7709 12.165 19.4433 12.1647 19.1016C12.1649 18.7599 12.2988 18.4323 12.5371 18.1908C12.7754 17.9493 13.0985 17.8137 13.4353 17.8138H17.4539V20.3897ZM8.78956 21.4346C8.78956 21.1466 9.01948 20.9128 9.30361 20.9128H17.4536V22.9995H8.78956V21.4343V21.4346ZM11.88 18.8347C11.8799 19.0391 11.8401 19.2414 11.7629 19.4302C11.6856 19.6189 11.5725 19.7904 11.43 19.9348C11.2875 20.0792 11.1183 20.1937 10.9321 20.2717C10.746 20.3498 10.5465 20.3899 10.3451 20.3897C10.1436 20.3899 9.9441 20.3498 9.75792 20.2718C9.57173 20.1938 9.40253 20.0793 9.25996 19.9349C9.1174 19.7905 9.00427 19.619 8.92704 19.4302C8.84981 19.2415 8.80999 19.0391 8.80985 18.8347C8.80985 17.9764 9.49705 17.2805 10.3451 17.2805C11.1926 17.2805 11.88 17.9764 11.88 18.8347ZM20.2702 14.4802L19.4068 11.9862C19.2393 11.516 18.9177 11.149 18.0098 11.149H14.0238C13.1162 11.149 12.794 11.516 12.6273 11.9862L11.7642 14.4802C11.6997 14.6413 11.6663 15.0033 12.0175 15.2457L14.0472 16.6026C14.1895 16.6978 14.3633 16.7319 14.5303 16.6973C14.6974 16.6628 14.8441 16.5625 14.9384 16.4183C14.9848 16.3468 15.017 16.2666 15.0329 16.1825C15.0489 16.0983 15.0484 16.0118 15.0313 15.9279C15.0143 15.8439 14.9812 15.7642 14.9338 15.6933C14.8864 15.6223 14.8257 15.5616 14.7552 15.5144L13.1442 14.4372L13.5976 13.1682H14.2252L13.8576 14.1977L15.0807 15.0156C15.216 15.1056 15.3324 15.2219 15.4232 15.3579C15.5139 15.4938 15.5771 15.6467 15.6091 15.8077C15.6424 15.9685 15.6438 16.1345 15.6132 16.2959C15.5827 16.4574 15.5209 16.6111 15.4313 16.748C15.3596 16.8567 15.2715 16.9533 15.1703 17.0342H16.8638C16.7628 16.953 16.6747 16.8564 16.6025 16.748C16.513 16.611 16.4512 16.4574 16.4206 16.296C16.39 16.1345 16.3912 15.9686 16.4242 15.8077C16.4564 15.6467 16.5198 15.4939 16.6105 15.358C16.7012 15.222 16.8176 15.1056 16.9529 15.0156L18.1768 14.1977L17.8076 13.1682H18.4357L18.8902 14.4372L17.2784 15.5144C16.9822 15.7125 16.8995 16.1183 17.0955 16.4183C17.2915 16.7183 17.6907 16.8012 17.9869 16.6026L20.0164 15.2457C20.3678 15.0031 20.3345 14.6413 20.2702 14.4802ZM16.4135 8.70809C16.365 8.81492 16.2873 8.90541 16.1897 8.96884C16.0921 9.03226 15.9786 9.06596 15.8627 9.06595C15.7466 9.06589 15.633 9.03218 15.5352 8.96878C15.4373 8.90537 15.3594 8.81493 15.3106 8.70809H14.1988C14.1808 8.80713 14.1702 8.90852 14.1702 9.01304C14.1707 9.46969 14.3499 9.90747 14.6683 10.2302C14.9868 10.5529 15.4185 10.7341 15.8686 10.734C16.0915 10.7342 16.3123 10.6898 16.5183 10.6034C16.7243 10.517 16.9115 10.3903 17.0692 10.2305C17.227 10.0707 17.3521 9.88091 17.4376 9.67202C17.523 9.46313 17.567 9.2392 17.5672 9.01304C17.5672 8.90826 17.5561 8.80713 17.5389 8.70809H16.4135ZM15.2731 8.30175C15.3063 8.16864 15.3823 8.05055 15.4891 7.96616C15.5959 7.88176 15.7273 7.83587 15.8627 7.83573C16.1468 7.83573 16.3865 8.03486 16.4512 8.30175H17.4146C17.2797 8.00057 17.0622 7.74515 16.7881 7.566C16.514 7.38686 16.1949 7.29157 15.8688 7.29151C15.5428 7.29157 15.2236 7.38686 14.9495 7.566C14.6754 7.74515 14.458 8.00057 14.3231 8.30175H15.2731Z" fill="white"/>
</svg>
