<svg width="16" height="16" viewBox="0 0 16 16" fill="none" xmlns="http://www.w3.org/2000/svg">
<path d="M15.7194 1.54167C15.5518 1.396 15.3325 1.32208 15.1098 1.33614C14.8872 1.35021 14.6792 1.45109 14.5316 1.61667L12.9563 3.40833L12.4256 2.81667C12.277 2.65091 12.068 2.55032 11.8444 2.53704C11.6209 2.52375 11.4011 2.59886 11.2336 2.74583C11.066 2.89281 10.9643 3.09961 10.9509 3.32075C10.9375 3.54188 11.0134 3.75924 11.162 3.925L12.3329 5.225C12.4126 5.31237 12.5101 5.38206 12.619 5.42945C12.7279 5.47685 12.8458 5.5009 12.9647 5.5C13.0829 5.49868 13.1995 5.47277 13.3069 5.42395C13.4143 5.37514 13.5101 5.30451 13.5881 5.21667L15.7868 2.71667C15.9351 2.55188 16.0113 2.33565 15.9986 2.11539C15.986 1.89513 15.8856 1.68881 15.7194 1.54167ZM5.89689 7.16667C6.56334 7.16667 7.21483 6.97117 7.76897 6.6049C8.3231 6.23863 8.755 5.71803 9.01004 5.10895C9.26508 4.49986 9.33181 3.82964 9.2018 3.18303C9.07178 2.53643 8.75085 1.94249 8.27959 1.47631C7.80834 1.01014 7.20792 0.692668 6.55428 0.564051C5.90063 0.435433 5.2231 0.501444 4.60738 0.753736C3.99166 1.00603 3.46539 1.43327 3.09513 1.98143C2.72487 2.5296 2.52724 3.17406 2.52724 3.83333C2.52724 4.71739 2.88225 5.56524 3.51419 6.19036C4.14612 6.81548 5.0032 7.16667 5.89689 7.16667ZM10.9514 15.5C11.1748 15.5 11.3891 15.4122 11.547 15.2559C11.705 15.0996 11.7938 14.8877 11.7938 14.6667C11.7938 13.1196 11.1725 11.6358 10.0666 10.5419C8.96074 9.44792 7.46084 8.83333 5.89689 8.83333C4.33294 8.83333 2.83304 9.44792 1.72716 10.5419C0.621278 11.6358 2.33047e-08 13.1196 0 14.6667C0 14.8877 0.0887539 15.0996 0.246737 15.2559C0.40472 15.4122 0.618991 15.5 0.842413 15.5" fill="#0E2970"/>
</svg>
