<svg width="30" height="30" viewBox="0 0 30 30" fill="none" xmlns="http://www.w3.org/2000/svg">
<rect width="30" height="30" rx="8" fill="#FB9C2A"/>
<mask id="mask0_8609_2003" style="mask-type:alpha" maskUnits="userSpaceOnUse" x="6" y="6" width="18" height="18">
<rect x="6" y="6" width="18" height="18" fill="#D9D9D9"/>
</mask>
<g mask="url(#mask0_8609_2003)">
<path d="M9 21.75V18.5625L18.8813 8.7C19.0313 8.55 19.2 8.4375 19.3875 8.3625C19.575 8.2875 19.7625 8.25 19.95 8.25C20.15 8.25 20.3406 8.2875 20.5219 8.3625C20.7031 8.4375 20.8625 8.55 21 8.7L22.05 9.75C22.2 9.8875 22.3125 10.0469 22.3875 10.2281C22.4625 10.4094 22.5 10.6 22.5 10.8C22.5 10.9875 22.4625 11.175 22.3875 11.3625C22.3125 11.55 22.2 11.7188 22.05 11.8688L12.1875 21.75H9ZM10.5 20.25H11.55L18.9188 12.9L18.3938 12.3562L17.85 11.8313L10.5 19.2V20.25ZM18.3938 12.3562L17.85 11.8313L18.9188 12.9L18.3938 12.3562ZM16.5 21.75C17.425 21.75 18.2813 21.5188 19.0688 21.0563C19.8563 20.5938 20.25 19.95 20.25 19.125C20.25 18.675 20.1313 18.2875 19.8938 17.9625C19.6563 17.6375 19.3375 17.3562 18.9375 17.1187L17.8313 18.225C18.1188 18.35 18.3438 18.4875 18.5063 18.6375C18.6688 18.7875 18.75 18.95 18.75 19.125C18.75 19.4125 18.5219 19.6719 18.0656 19.9031C17.6094 20.1344 17.0875 20.25 16.5 20.25C16.2875 20.25 16.1094 20.3219 15.9656 20.4656C15.8219 20.6094 15.75 20.7875 15.75 21C15.75 21.2125 15.8219 21.3906 15.9656 21.5344C16.1094 21.6781 16.2875 21.75 16.5 21.75ZM9.43125 16.0125L10.5563 14.8875C10.3063 14.7875 10.1094 14.6844 9.96563 14.5781C9.82188 14.4719 9.75 14.3625 9.75 14.25C9.75 14.1 9.8625 13.95 10.0875 13.8C10.3125 13.65 10.7875 13.4187 11.5125 13.1062C12.6125 12.6312 13.3438 12.2 13.7063 11.8125C14.0688 11.425 14.25 10.9875 14.25 10.5C14.25 9.8125 13.975 9.26562 13.425 8.85938C12.875 8.45312 12.15 8.25 11.25 8.25C10.6875 8.25 10.1844 8.35 9.74063 8.55C9.29688 8.75 8.95625 8.99375 8.71875 9.28125C8.58125 9.44375 8.525 9.625 8.55 9.825C8.575 10.025 8.66875 10.1875 8.83125 10.3125C8.99375 10.45 9.175 10.5063 9.375 10.4813C9.575 10.4563 9.74375 10.375 9.88125 10.2375C10.0563 10.0625 10.25 9.9375 10.4625 9.8625C10.675 9.7875 10.9375 9.75 11.25 9.75C11.7625 9.75 12.1406 9.825 12.3844 9.975C12.6281 10.125 12.75 10.3 12.75 10.5C12.75 10.675 12.6406 10.8344 12.4219 10.9781C12.2031 11.1219 11.7 11.375 10.9125 11.7375C9.9125 12.175 9.21875 12.5719 8.83125 12.9281C8.44375 13.2844 8.25 13.725 8.25 14.25C8.25 14.65 8.35625 14.9906 8.56875 15.2719C8.78125 15.5531 9.06875 15.8 9.43125 16.0125Z" fill="white"/>
</g>
</svg>
