<svg width="14" height="14" viewBox="0 0 14 14" fill="none" xmlns="http://www.w3.org/2000/svg">
<path d="M12 1H2C1.73478 1 1.48043 1.10536 1.29289 1.29289C1.10536 1.48043 1 1.73478 1 2V12C1 12.2652 1.10536 12.5196 1.29289 12.7071C1.48043 12.8946 1.73478 13 2 13H12C12.2652 13 12.5196 12.8946 12.7071 12.7071C12.8946 12.5196 13 12.2652 13 12V2C13 1.73478 12.8946 1.48043 12.7071 1.29289C12.5196 1.10536 12.2652 1 12 1Z" stroke="currentColor" stroke-width="1.2" stroke-linejoin="round"/>
<path d="M7.00098 8.54171V7.20837C7.39654 7.20837 7.78322 7.09108 8.11212 6.87131C8.44101 6.65155 8.69736 6.33919 8.84874 5.97374C9.00011 5.60829 9.03972 5.20616 8.96255 4.81819C8.88538 4.43023 8.69489 4.07387 8.41519 3.79416C8.13548 3.51446 7.77912 3.32397 7.39116 3.2468C7.00319 3.16963 6.60106 3.20924 6.23561 3.36062C5.87016 3.51199 5.5578 3.76834 5.33804 4.09723C5.11827 4.42613 5.00098 4.81281 5.00098 5.20837" stroke="currentColor" stroke-width="1.2" stroke-linecap="round" stroke-linejoin="round"/>
<path fill-rule="evenodd" clip-rule="evenodd" d="M6.99935 11.5416C7.22036 11.5416 7.43232 11.4538 7.5886 11.2976C7.74488 11.1413 7.83268 10.9293 7.83268 10.7083C7.83268 10.4873 7.74488 10.2753 7.5886 10.119C7.43232 9.96277 7.22036 9.87497 6.99935 9.87497C6.77834 9.87497 6.56637 9.96277 6.41009 10.119C6.25381 10.2753 6.16602 10.4873 6.16602 10.7083C6.16602 10.9293 6.25381 11.1413 6.41009 11.2976C6.56637 11.4538 6.77834 11.5416 6.99935 11.5416Z" fill="black"/>
</svg>
