<svg width="15" height="15" viewBox="0 0 15 15" fill="none" xmlns="http://www.w3.org/2000/svg">
<path d="M8.91645 4.69324H2.34625C2.22179 4.69324 2.10242 4.6438 2.01441 4.55579C1.9264 4.46778 1.87695 4.34841 1.87695 4.22394V2.34674C1.87695 2.22228 1.9264 2.10291 2.01441 2.0149C2.10242 1.92689 2.22179 1.87744 2.34625 1.87744H8.91645C9.04092 1.87744 9.16029 1.92689 9.2483 2.0149C9.33631 2.10291 9.38575 2.22228 9.38575 2.34674V4.22394C9.38575 4.34841 9.33631 4.46778 9.2483 4.55579C9.16029 4.6438 9.04092 4.69324 8.91645 4.69324ZM2.81555 3.75464H8.44715V2.78788H2.81555V3.75464Z" fill="black"/>
<path d="M8.91645 5.66919H2.34625C2.22179 5.66919 2.10242 5.71863 2.01441 5.80664C1.9264 5.89466 1.87695 6.01402 1.87695 6.13849V7.97815C1.87695 8.10261 1.9264 8.22198 2.01441 8.30999C2.10242 8.398 2.22179 8.44745 2.34625 8.44745H7.6775L9.38575 6.71104V6.13849C9.38575 6.01402 9.33631 5.89466 9.2483 5.80664C9.16029 5.71863 9.04092 5.66919 8.91645 5.66919ZM8.44715 7.50885H2.81555V6.57025H8.44715V7.50885Z" fill="black"/>
<path d="M4.25186 13.849V13.8209L4.40203 13.1686H0.9386V0.9386H10.3246V5.74893L11.2632 4.86195V0.4693C11.2632 0.344834 11.2138 0.225466 11.1257 0.137455C11.0377 0.049444 10.9184 0 10.7939 0H0.4693C0.344834 0 0.225466 0.049444 0.137455 0.137455C0.049444 0.225466 0 0.344834 0 0.4693V13.6097C0 13.7342 0.049444 13.8535 0.137455 13.9415C0.225466 14.0296 0.344834 14.079 0.4693 14.079H4.2237C4.2275 14.0018 4.23691 13.9249 4.25186 13.849Z" fill="black"/>
<path d="M9.38656 8.05762L9.02051 8.42836C9.11132 8.40964 9.19456 8.36444 9.25971 8.29845C9.32486 8.23247 9.369 8.14867 9.38656 8.05762Z" fill="black"/>
<path d="M1.87695 11.7043C1.87695 11.8288 1.9264 11.9482 2.01441 12.0362C2.10242 12.1242 2.22179 12.1736 2.34625 12.1736H4.61767L4.75846 11.5635L4.81946 11.3054V11.282H2.81555V10.3246H5.79092L6.72952 9.38599H2.34625C2.22179 9.38599 2.10242 9.43543 2.01441 9.52344C1.9264 9.61145 1.87695 9.73082 1.87695 9.85529V11.7043Z" fill="black"/>
<path d="M14.7786 6.88414L13.1971 5.3026C13.1269 5.23222 13.0435 5.17638 12.9517 5.13828C12.8599 5.10018 12.7615 5.08057 12.6621 5.08057C12.5627 5.08057 12.4643 5.10018 12.3725 5.13828C12.2807 5.17638 12.1973 5.23222 12.1271 5.3026L5.693 11.7743L5.16269 14.0316C5.14284 14.129 5.14239 14.2293 5.16138 14.3269C5.18036 14.4244 5.21841 14.5173 5.27334 14.6001C5.32827 14.6829 5.399 14.7541 5.48148 14.8096C5.56396 14.865 5.65657 14.9037 5.75401 14.9233C5.80239 14.928 5.85111 14.928 5.89949 14.9233C5.95702 14.9322 6.0156 14.9322 6.07313 14.9233L8.34924 14.4211L14.7786 7.97761C14.8489 7.90782 14.9046 7.82484 14.9427 7.73342C14.9807 7.642 15.0003 7.54397 15.0003 7.44496C15.0003 7.34594 14.9807 7.24791 14.9427 7.15649C14.9046 7.06508 14.8489 6.98209 14.7786 6.9123V6.88414ZM7.87055 13.567L6.15291 13.9471L6.57059 12.2436L11.395 7.36752L12.7184 8.69095L7.87055 13.567ZM13.2487 8.16064L11.9253 6.83721L12.6715 6.10041L14.0043 7.43322L13.2487 8.16064Z" fill="black"/>
</svg>
