<svg width="12" height="12" viewBox="0 0 12 12" fill="none" xmlns="http://www.w3.org/2000/svg">
<path d="M1.34896 1.33333H5.39585C5.76681 1.33333 6.07033 1.03333 6.07033 0.666667C6.07033 0.3 5.76681 0 5.39585 0H1.34896C0.607033 0 0 0.6 0 1.33333V10.6667C0 11.4 0.607033 12 1.34896 12H5.39585C5.76681 12 6.07033 11.7 6.07033 11.3333C6.07033 10.9667 5.76681 10.6667 5.39585 10.6667H1.34896V1.33333Z" fill="black"/>
<path d="M11.9046 5.76666L10.0228 3.90666C9.97587 3.85903 9.91564 3.82632 9.84982 3.81271C9.78399 3.7991 9.71555 3.80522 9.65326 3.83027C9.59097 3.85533 9.53766 3.89819 9.50015 3.95336C9.46265 4.00854 9.44265 4.07352 9.44272 4.14V5.33333H4.72136C4.35039 5.33333 4.04688 5.63333 4.04688 6C4.04688 6.36666 4.35039 6.66666 4.72136 6.66666H9.44272V7.86C9.44272 8.16 9.80694 8.30666 10.016 8.09333L11.8978 6.23333C12.0327 6.10666 12.0327 5.89333 11.9046 5.76666Z" fill="black"/>
</svg>
