<svg width="30" height="30" viewBox="0 0 30 30" fill="none" xmlns="http://www.w3.org/2000/svg">
<circle cx="15" cy="15" r="15" fill="#00B7FF"/>
<path d="M17.4707 20.0027L17.0549 20.6707V20.6887H17.7423V20.0027C17.7423 19.822 17.7603 19.6233 17.7603 19.4247H17.7423C17.6516 19.6233 17.5795 19.804 17.4714 20.0027H17.4707ZM22.352 14.6927H21.8094V14.3313H22.2072L21.9542 14.0787L22.2072 13.826L22.5869 14.2053L22.352 14.44V14.6927ZM21.2668 14.6927H20.7249V14.3313H21.2675L21.2668 14.6927ZM20.1816 14.6927H19.6397V14.3313H20.1823L20.1816 14.6927ZM19.0971 14.6927H18.5572V14.3313H19.0998L19.0971 14.6927ZM18.012 14.6927H17.4707V14.3313H18.0133L18.012 14.6927ZM16.9274 14.6927H16.3862V14.3313H16.9288L16.9274 14.6927ZM15.8423 14.6927H15.3003V14.3313H15.8429L15.8423 14.6927ZM14.7571 14.6927H14.2165V14.3313H14.7591L14.7571 14.6927ZM13.6726 14.6927H13.132V14.3313H13.6746L13.6726 14.6927ZM12.5874 14.6927H12.0468V14.3313H12.5894L12.5874 14.6927ZM11.5029 14.6927H10.9623V14.3313H11.5049L11.5029 14.6927ZM10.4177 14.6927H9.87781V14.3313H10.4197L10.4177 14.6927ZM9.33255 14.6927H8.79263V14.3313H9.33522L9.33255 14.6927ZM8.24804 14.6927H7.70812V14.422L7.49122 14.6387L7.23828 14.3867L7.61803 14.0073L7.87097 14.26L7.79889 14.332H8.25271L8.24804 14.6927ZM8.26873 13.88L8.01579 13.6273L8.39553 13.248L8.64848 13.5007L8.26873 13.88ZM21.5565 13.6993L21.1767 13.32L21.4297 13.0673L21.8094 13.4467L21.5565 13.6993ZM9.02822 13.122L8.77528 12.8667L9.15502 12.4873L9.40797 12.74L9.02822 13.122ZM20.7996 12.9413L20.4199 12.562L20.6728 12.3093L21.0526 12.6887L20.7996 12.9413ZM9.80506 12.3633L9.55212 12.1107L9.93187 11.7313L10.1848 11.984L9.80506 12.3633ZM20.0195 12.1827L19.6397 11.8033L19.892 11.5513L20.2717 11.9307L20.0195 12.1827ZM10.5826 11.6047L10.3296 11.352L10.7087 10.9727L10.9616 11.2253L10.5826 11.6047ZM19.242 11.4267L18.8622 11.0473L19.1151 10.7947L19.4949 11.174L19.242 11.4267ZM11.3601 10.8467L11.1071 10.594L11.4869 10.2147L11.7398 10.4673L11.3601 10.8467ZM18.4651 10.6653L18.0854 10.286L18.3383 10.0333L18.7174 10.4133L18.4651 10.6653ZM12.1376 10.088L11.8833 9.83533L12.2631 9.456L12.516 9.70867L12.1376 10.088ZM17.6903 9.90733L17.3079 9.528L17.5608 9.27533L17.9405 9.65467L17.6903 9.90733ZM12.9151 9.32933L12.6622 9.07667L13.0419 8.69733L13.2948 8.95L12.9151 9.32933ZM16.9101 9.14867L16.5283 8.76933L16.7813 8.51667L17.161 8.896L16.9101 9.14867ZM13.6919 8.57133L13.439 8.31867L13.8187 7.93933L14.0717 8.192L13.6919 8.57133ZM16.1479 8.39067L15.7709 8.01333L16.0238 7.76067L16.4035 8.14L16.1479 8.39067ZM14.4514 7.81267L14.1985 7.56L14.5963 7.18067L14.8492 7.43333L14.4514 7.81267ZM15.3738 7.632L14.994 7.25267L15.2289 7L15.6087 7.37933L15.3738 7.632ZM13.5478 16.1013C13.2401 16.1013 13.0599 16.3907 13.0599 16.7693C13.0599 17.1667 13.2408 17.4373 13.5478 17.4373C13.8548 17.4373 14.0176 17.148 14.0176 16.7693C14.0183 16.408 13.8554 16.1013 13.5478 16.1013ZM11.595 16.1013C11.527 16.0948 11.4583 16.1014 11.3928 16.1207L11.3961 16.12V16.662H11.577C11.7939 16.662 11.9387 16.5553 11.9387 16.3727C11.9207 16.192 11.7939 16.1013 11.595 16.1013ZM15.6627 16.1013C15.3551 16.1013 15.1749 16.3907 15.1749 16.7693C15.1749 17.1667 15.3557 17.4373 15.6627 17.4373C15.9697 17.4373 16.1326 17.148 16.1326 16.7693C16.1506 16.408 15.9704 16.1013 15.6627 16.1013Z" fill="white"/>
<path d="M22.0957 14.0427H7.89564C7.4011 14.0427 7 14.4434 7 14.9374V14.9467V14.946V22.1054C7 22.5994 7.4011 23 7.89564 23H22.1044C22.5989 23 23 22.5994 23 22.1054V22.096V22.0967V14.946C22.9989 14.707 22.9034 14.478 22.7342 14.3089C22.5649 14.1399 22.3357 14.0444 22.0964 14.0434L22.0957 14.0427ZM7.95904 22.0247H7.54326V15.1807H7.95904V22.0247ZM10.9416 15.812C11.1211 15.7894 11.3287 15.776 11.5389 15.776C11.7694 15.7494 12.0017 15.807 12.193 15.938L12.1896 15.936C12.252 15.9852 12.3011 16.0491 12.3327 16.122C12.3642 16.1948 12.3772 16.2743 12.3705 16.3534V16.3514C12.3702 16.4573 12.3375 16.5606 12.2767 16.6475C12.216 16.7343 12.1302 16.8006 12.0308 16.8374L12.0274 16.8387C12.1723 16.892 12.2443 17.0194 12.2984 17.218C12.3478 17.442 12.4032 17.6294 12.4693 17.8114L12.4586 17.778H11.9887C11.9296 17.6326 11.8825 17.4825 11.8479 17.3294L11.8439 17.3087C11.7905 17.056 11.6991 17.0014 11.5189 16.984H11.3754V17.7607H10.9236V15.812H10.9416ZM13.3822 21.952H11.1932V21.5187L11.591 21.1574C12.2597 20.5614 12.5854 20.2 12.6054 19.8387C12.6054 19.586 12.4606 19.3874 12.0995 19.3874C11.8543 19.3966 11.6191 19.4869 11.4308 19.644L11.4328 19.6427L11.2339 19.1187C11.5225 18.9064 11.8719 18.7925 12.2303 18.794H12.249C12.3846 18.7764 12.5217 18.7879 12.6524 18.8276C12.7832 18.8674 12.904 18.9346 13.0067 19.0247C13.1094 19.1148 13.1916 19.2257 13.248 19.3501C13.3044 19.4745 13.3335 19.6095 13.3335 19.746V19.77V19.7687C13.2976 20.0343 13.2074 20.2897 13.0685 20.5189C12.9296 20.7482 12.7449 20.9465 12.526 21.1014L12.52 21.1054L12.2303 21.34V21.358H13.3876L13.3822 21.952ZM12.5867 16.7874C12.5758 16.654 12.5927 16.5198 12.6364 16.3933C12.68 16.2667 12.7494 16.1506 12.8402 16.0522C12.931 15.9538 13.0412 15.8753 13.1639 15.8215C13.2866 15.7678 13.4191 15.7401 13.5531 15.74H13.5631H13.5624H13.5865C13.7156 15.7401 13.8433 15.7672 13.9613 15.8198C14.0792 15.8723 14.1848 15.949 14.2712 16.0449C14.3575 16.1409 14.4227 16.2539 14.4625 16.3766C14.5023 16.4994 14.5158 16.6291 14.5021 16.7574L14.5028 16.7534C14.5165 16.8857 14.5023 17.0194 14.461 17.1458C14.4198 17.2723 14.3524 17.3886 14.2632 17.4874C14.1741 17.5862 14.0652 17.6652 13.9435 17.7193C13.8219 17.7734 13.6902 17.8013 13.5571 17.8014L13.5251 17.8007H13.5264H13.5037C13.3745 17.8008 13.2467 17.7737 13.1287 17.7212C13.0106 17.6687 12.905 17.592 12.8186 17.4961C12.7321 17.4001 12.6669 17.2871 12.6271 17.1643C12.5872 17.0415 12.5737 16.9117 12.5874 16.7834V16.7874H12.5867ZM14.7377 22.0067L14.701 22.0074C14.3773 22.0074 14.0723 21.9274 13.8054 21.7854L13.8161 21.7907L13.9609 21.2487C14.1815 21.3723 14.4288 21.4404 14.6817 21.4474H14.6837C15.0634 21.4474 15.2443 21.2667 15.2443 21.032C15.2443 20.7247 14.9366 20.5987 14.6296 20.5987H14.34V20.0747H14.6296C14.8645 20.0747 15.1722 19.9847 15.1722 19.7134C15.1722 19.5327 15.0274 19.3887 14.7197 19.3887C14.4889 19.3977 14.2634 19.461 14.0617 19.5734L14.069 19.5694L13.9242 19.0454C14.217 18.8808 14.5494 18.7996 14.8852 18.8107H14.8825C15.5513 18.8107 15.913 19.1534 15.913 19.5874C15.9117 19.7515 15.8567 19.9108 15.7565 20.0408C15.6563 20.1709 15.5162 20.2648 15.3577 20.308L15.3524 20.3094V20.3274C15.7328 20.3747 16.0238 20.6954 16.0238 21.084V21.086C16.0038 21.61 15.5152 22.0074 14.7384 22.0074L14.7377 22.0067ZM15.6414 17.7987H15.628C15.4985 17.7987 15.3703 17.7717 15.2518 17.7194C15.1333 17.6671 15.0271 17.5906 14.9399 17.4949C14.8527 17.3992 14.7864 17.2864 14.7454 17.1636C14.7044 17.0408 14.6895 16.9109 14.7017 16.782V16.786C14.6908 16.6527 14.7077 16.5185 14.7513 16.3919C14.795 16.2654 14.8644 16.1493 14.9552 16.0509C15.0459 15.9525 15.1562 15.8739 15.2789 15.8202C15.4016 15.7665 15.5341 15.7387 15.6681 15.7387H15.6781H15.7014C15.8306 15.7387 15.9583 15.7659 16.0762 15.8184C16.1942 15.8709 16.2998 15.9477 16.3861 16.0436C16.4725 16.1395 16.5377 16.2526 16.5775 16.3753C16.6173 16.498 16.6307 16.6278 16.6171 16.756L16.6178 16.752C16.6315 16.8843 16.6173 17.018 16.576 17.1445C16.5347 17.2709 16.4673 17.3873 16.3782 17.4861C16.2891 17.5849 16.1801 17.6639 16.0585 17.718C15.9369 17.772 15.8052 17.8 15.6721 17.8L15.6414 17.7987ZM18.8055 21.212H18.4264V21.952H17.739V21.2114H16.3655V20.742L17.5401 18.864H18.4264V20.67H18.8061L18.8055 21.212ZM18.6246 17.7814L18.5866 17.0227C18.5866 16.788 18.5685 16.4987 18.5685 16.21C18.5151 16.4627 18.4237 16.752 18.3516 16.9867L18.1167 17.7634H17.7737L17.5568 16.9867C17.4847 16.752 17.43 16.4627 17.3759 16.21C17.3579 16.4807 17.3579 16.788 17.3399 17.0407L17.3058 17.7994H16.89L17.0169 15.8127H17.6135L17.8124 16.4807C17.8658 16.7154 17.9392 16.95 17.9726 17.1854C18.0259 16.9507 18.0994 16.698 18.1534 16.4634L18.3703 15.7954H18.967L19.0737 17.782L18.6246 17.7814ZM22.4567 21.9534H22.041V15.1267H22.4567V21.9534Z" fill="white"/>
</svg>
