<svg width="17" height="12" viewBox="0 0 17 12" fill="none" xmlns="http://www.w3.org/2000/svg">
<path d="M15.1667 0H1.83333C1.10667 0.0266667 0.526667 0.606667 0.5 1.33333V10.6667C0.526667 11.3933 1.10667 11.9733 1.83333 12H15.1667C15.8933 11.9733 16.4733 11.3933 16.5 10.6667V1.33333C16.4877 0.983618 16.3433 0.651562 16.0959 0.404123C15.8484 0.156685 15.5164 0.0122703 15.1667 0ZM15.1667 10.6667H1.83333V1.33333H15.1667V10.6667ZM9.83333 9.33333V8.5C9.83333 7.39333 7.60667 6.83333 6.5 6.83333C5.39333 6.83333 3.16667 7.39333 3.16667 8.5V9.33333H9.83333ZM6.5 2.66667C6.05797 2.66667 5.63405 2.84226 5.32149 3.15482C5.00893 3.46738 4.83333 3.89131 4.83333 4.33333C4.83333 4.5522 4.87644 4.76893 4.9602 4.97114C5.04396 5.17335 5.16672 5.35708 5.32149 5.51184C5.63405 5.82441 6.05797 6 6.5 6C6.71887 6 6.9356 5.95689 7.13781 5.87313C7.34002 5.78938 7.52375 5.66661 7.67851 5.51184C7.83328 5.35708 7.95604 5.17335 8.0398 4.97114C8.12356 4.76893 8.16667 4.5522 8.16667 4.33333C8.16667 4.11446 8.12356 3.89774 8.0398 3.69553C7.95604 3.49332 7.83328 3.30959 7.67851 3.15482C7.52375 3.00006 7.34002 2.87729 7.13781 2.79353C6.9356 2.70978 6.71887 2.66667 6.5 2.66667ZM9.83333 2.66667V3.33333H13.8333V2.66667H9.83333ZM9.83333 4V4.66667H13.8333V4H9.83333ZM9.83333 5.33333V6H12.5V5.33333H9.83333Z" fill="#FF510D"/>
</svg>
