<svg width="30" height="30" viewBox="0 0 30 30" fill="none" xmlns="http://www.w3.org/2000/svg">
<rect width="30" height="30" rx="8" fill="#169458"/>
<path fill-rule="evenodd" clip-rule="evenodd" d="M10.7733 6H19.2267C20.2569 6 20.7716 6 21.1876 6.1467C21.5796 6.28774 21.9344 6.51827 22.2243 6.82041C22.5142 7.12255 22.7316 7.48821 22.8596 7.88906C23 8.32285 23 8.85924 23 9.93291V22.5362C23 23.3084 22.1244 23.7188 21.5707 23.2058C21.4153 23.0605 21.2115 22.9798 21 22.9798C20.7885 22.9798 20.5847 23.0605 20.4293 23.2058L20 23.6036C19.7278 23.8585 19.3707 24 19 24C18.6293 24 18.2722 23.8585 18 23.6036C17.7278 23.3488 17.3707 23.2072 17 23.2072C16.6293 23.2072 16.2722 23.3488 16 23.6036C15.7278 23.8585 15.3707 24 15 24C14.6293 24 14.2722 23.8585 14 23.6036C13.7278 23.3488 13.3707 23.2072 13 23.2072C12.6293 23.2072 12.2722 23.3488 12 23.6036C11.7278 23.8585 11.3707 24 11 24C10.6293 24 10.2722 23.8585 10 23.6036L9.57067 23.2058C9.4153 23.0605 9.21154 22.9798 9 22.9798C8.78846 22.9798 8.5847 23.0605 8.42933 23.2058C7.87556 23.7188 7 23.3084 7 22.5362V9.93291C7 8.85924 7 8.32195 7.14044 7.88996C7.40711 7.06828 8.02489 6.42389 8.81244 6.1467C9.22844 6 9.74311 6 10.7733 6ZM17.72 11.8499C17.7784 11.7837 17.8233 11.7065 17.8522 11.6228C17.8811 11.539 17.8934 11.4503 17.8885 11.3617C17.8835 11.2731 17.8614 11.1864 17.8233 11.1065C17.7853 11.0265 17.732 10.955 17.6667 10.8959C17.6013 10.8368 17.5251 10.7913 17.4423 10.7621C17.3596 10.7328 17.272 10.7203 17.1845 10.7253C17.097 10.7303 17.0114 10.7527 16.9324 10.7913C16.8535 10.8298 16.7828 10.8837 16.7244 10.9499L14.048 13.9864L13.2747 13.1098C13.1565 12.9776 12.9914 12.8981 12.8155 12.8887C12.6396 12.8793 12.4672 12.9408 12.3359 13.0597C12.2046 13.1786 12.1251 13.3452 12.1148 13.5233C12.1045 13.7013 12.1642 13.8762 12.2809 14.0098L13.5502 15.4498C13.6128 15.5207 13.6894 15.5775 13.7751 15.6163C13.8608 15.6552 13.9536 15.6753 14.0476 15.6753C14.1415 15.6753 14.2343 15.6552 14.32 15.6163C14.4057 15.5775 14.4824 15.5207 14.5449 15.4498L17.72 11.8499ZM11 17.4747C10.8232 17.4747 10.6536 17.5459 10.5286 17.6724C10.4036 17.799 10.3333 17.9707 10.3333 18.1497C10.3333 18.3288 10.4036 18.5004 10.5286 18.627C10.6536 18.7536 10.8232 18.8247 11 18.8247H19C19.1768 18.8247 19.3464 18.7536 19.4714 18.627C19.5964 18.5004 19.6667 18.3288 19.6667 18.1497C19.6667 17.9707 19.5964 17.799 19.4714 17.6724C19.3464 17.5459 19.1768 17.4747 19 17.4747H11Z" fill="white"/>
</svg>
