<svg width="16" height="16" viewBox="0 0 16 16" fill="none" xmlns="http://www.w3.org/2000/svg">
<path d="M8 0C9.45139 0 10.7899 0.357639 12.0156 1.07292C13.2413 1.78819 14.2118 2.75868 14.9271 3.98438C15.6424 5.21007 16 6.54861 16 8C16 9.45139 15.6424 10.7899 14.9271 12.0156C14.2118 13.2413 13.2413 14.2118 12.0156 14.9271C10.7899 15.6424 9.45139 16 8 16C6.54861 16 5.21007 15.6424 3.98438 14.9271C2.75868 14.2118 1.78819 13.2413 1.07292 12.0156C0.357639 10.7899 0 9.45139 0 8C0 6.54861 0.357639 5.21007 1.07292 3.98438C1.78819 2.75868 2.75868 1.78819 3.98438 1.07292C5.21007 0.357639 6.54861 0 8 0ZM8 13.6667C9.02778 13.6667 9.97569 13.4132 10.8438 12.9062C11.7118 12.3993 12.3993 11.7118 12.9062 10.8438C13.4132 9.97569 13.6667 9.02778 13.6667 8C13.6667 6.97222 13.4132 6.02431 12.9062 5.15625C12.3993 4.28819 11.7118 3.60069 10.8438 3.09375C9.97569 2.58681 9.02778 2.33333 8 2.33333C6.97222 2.33333 6.02431 2.58681 5.15625 3.09375C4.28819 3.60069 3.60069 4.28819 3.09375 5.15625C2.58681 6.02431 2.33333 6.97222 2.33333 8C2.33333 9.02778 2.58681 9.97569 3.09375 10.8438C3.60069 11.7118 4.28819 12.3993 5.15625 12.9062C6.02431 13.4132 6.97222 13.6667 8 13.6667ZM9 11.3333C8.90278 11.3333 8.82292 11.3021 8.76042 11.2396C8.69792 11.1771 8.66667 11.0972 8.66667 11V5C8.66667 4.90278 8.69792 4.82292 8.76042 4.76042C8.82292 4.69792 8.90278 4.66667 9 4.66667H11C11.0972 4.66667 11.1771 4.69792 11.2396 4.76042C11.3021 4.82292 11.3333 4.90278 11.3333 5V11C11.3333 11.0972 11.3021 11.1771 11.2396 11.2396C11.1771 11.3021 11.0972 11.3333 11 11.3333H9ZM5 11.3333C4.90278 11.3333 4.82292 11.3021 4.76042 11.2396C4.69792 11.1771 4.66667 11.0972 4.66667 11V5C4.66667 4.90278 4.69792 4.82292 4.76042 4.76042C4.82292 4.69792 4.90278 4.66667 5 4.66667H7C7.09722 4.66667 7.17708 4.69792 7.23958 4.76042C7.30208 4.82292 7.33333 4.90278 7.33333 5V11C7.33333 11.0972 7.30208 11.1771 7.23958 11.2396C7.17708 11.3021 7.09722 11.3333 7 11.3333H5Z" fill="#DEBA00"/>
</svg>
