<svg width="16" height="18" viewBox="0 0 16 18" fill="none" xmlns="http://www.w3.org/2000/svg">
<path fill-rule="evenodd" clip-rule="evenodd" d="M10.0267 5.2217e-08C10.3998 9.79738e-05 10.7634 0.119057 11.0661 0.340027C11.3687 0.560997 11.595 0.872775 11.7129 1.2312L12.1956 2.7H15.1111C15.3469 2.7 15.573 2.79482 15.7397 2.9636C15.9064 3.13239 16 3.36131 16 3.6C16 3.8387 15.9064 4.06761 15.7397 4.2364C15.573 4.40518 15.3469 4.5 15.1111 4.5L15.1084 4.5639L14.3378 15.4926C14.2897 16.1736 13.9886 16.8108 13.4951 17.276C13.0017 17.7412 12.3525 17.9999 11.6782 18H4.32178C3.64752 17.9999 2.99832 17.7412 2.50486 17.276C2.0114 16.8108 1.71032 16.1736 1.66222 15.4926L0.891555 4.563L0.888889 4.5C0.653141 4.5 0.427049 4.40518 0.260349 4.2364C0.0936505 4.06761 0 3.8387 0 3.6C0 3.36131 0.0936505 3.13239 0.260349 2.9636C0.427049 2.79482 0.653141 2.7 0.888889 2.7H3.80444L4.28711 1.2312C4.40506 0.87263 4.6315 0.560747 4.93431 0.339764C5.23712 0.11878 5.60095 -9.09551e-05 5.97422 5.2217e-08H10.0267ZM5.33333 7.2C5.11561 7.20003 4.90548 7.28096 4.74278 7.42744C4.58008 7.57393 4.47614 7.77577 4.45067 7.9947L4.44444 8.1V13.5C4.4447 13.7294 4.53145 13.95 4.68698 14.1168C4.8425 14.2836 5.05507 14.384 5.28124 14.3975C5.50741 14.4109 5.73011 14.3364 5.90385 14.1892C6.07759 14.0419 6.18924 13.8331 6.216 13.6053L6.22222 13.5V8.1C6.22222 7.86131 6.12857 7.63239 5.96187 7.4636C5.79517 7.29482 5.56908 7.2 5.33333 7.2ZM10.6667 7.2C10.4309 7.2 10.2048 7.29482 10.0381 7.4636C9.87143 7.63239 9.77778 7.86131 9.77778 8.1V13.5C9.77778 13.7387 9.87143 13.9676 10.0381 14.1364C10.2048 14.3052 10.4309 14.4 10.6667 14.4C10.9024 14.4 11.1285 14.3052 11.2952 14.1364C11.4619 13.9676 11.5556 13.7387 11.5556 13.5V8.1C11.5556 7.86131 11.4619 7.63239 11.2952 7.4636C11.1285 7.29482 10.9024 7.2 10.6667 7.2ZM10.0267 1.8H5.97333L5.67733 2.7H10.3227L10.0267 1.8Z" fill="#FF706F"/>
</svg>
