<svg width="26" height="26" viewBox="0 0 26 26" fill="none" xmlns="http://www.w3.org/2000/svg">
<rect width="26" height="26" rx="8" fill="#169458"/>
<path d="M11.8558 14.9033C11.8558 14.6366 11.9016 14.3798 11.9861 14.1412H6.71453C6.25981 14.1412 5.82371 14.3219 5.50217 14.6434C5.18064 14.965 5 15.4012 5 15.8559V16.5563C5 16.9922 5.13716 17.4174 5.38939 17.7726C6.56441 19.4217 8.48774 20.2379 11.0938 20.2379C11.3966 20.2379 11.6905 20.227 11.9755 20.2051C11.8963 19.9701 11.8559 19.7238 11.8558 19.4758V14.9033ZM11.0938 5C11.5942 5 12.0896 5.09856 12.5519 5.29005C13.0141 5.48154 13.4341 5.76222 13.7879 6.11605C14.1417 6.46988 14.4224 6.88994 14.6139 7.35224C14.8053 7.81455 14.9039 8.31004 14.9039 8.81043C14.9039 9.31082 14.8053 9.80632 14.6139 10.2686C14.4224 10.7309 14.1417 11.151 13.7879 11.5048C13.4341 11.8586 13.0141 12.1393 12.5519 12.3308C12.0896 12.5223 11.5942 12.6209 11.0938 12.6209C10.0833 12.6209 9.11422 12.2194 8.3997 11.5048C7.68517 10.7902 7.28375 9.82102 7.28375 8.81043C7.28375 7.79984 7.68517 6.83064 8.3997 6.11605C9.11422 5.40145 10.0833 5 11.0938 5ZM12.6178 14.9033C12.6178 14.4991 12.7784 14.1114 13.0642 13.8256C13.35 13.5397 13.7377 13.3791 14.1419 13.3791H19.476C19.8802 13.3791 20.2678 13.5397 20.5536 13.8256C20.8394 14.1114 21 14.4991 21 14.9033V19.4758C21 19.8801 20.8394 20.2677 20.5536 20.5536C20.2678 20.8394 19.8802 21 19.476 21H14.1419C13.7377 21 13.35 20.8394 13.0642 20.5536C12.7784 20.2677 12.6178 19.8801 12.6178 19.4758V14.9033ZM14.5229 15.6654C14.4218 15.6654 14.3249 15.7055 14.2535 15.777C14.182 15.8485 14.1419 15.9454 14.1419 16.0464C14.1419 16.1475 14.182 16.2444 14.2535 16.3159C14.3249 16.3873 14.4218 16.4275 14.5229 16.4275H19.095C19.196 16.4275 19.2929 16.3873 19.3644 16.3159C19.4358 16.2444 19.476 16.1475 19.476 16.0464C19.476 15.9454 19.4358 15.8485 19.3644 15.777C19.2929 15.7055 19.196 15.6654 19.095 15.6654H14.5229ZM14.5229 17.9517C14.4218 17.9517 14.3249 17.9918 14.2535 18.0633C14.182 18.1347 14.1419 18.2316 14.1419 18.3327C14.1419 18.4338 14.182 18.5307 14.2535 18.6021C14.3249 18.6736 14.4218 18.7137 14.5229 18.7137H19.095C19.196 18.7137 19.2929 18.6736 19.3644 18.6021C19.4358 18.5307 19.476 18.4338 19.476 18.3327C19.476 18.2316 19.4358 18.1347 19.3644 18.0633C19.2929 17.9918 19.196 17.9517 19.095 17.9517H14.5229Z" fill="#F8F8F8"/>
</svg>
