<svg width="26" height="26" viewBox="0 0 26 26" fill="none" xmlns="http://www.w3.org/2000/svg">
<rect width="26" height="26" rx="8" fill="#0096F0"/>
<path fill-rule="evenodd" clip-rule="evenodd" d="M9.75 5C9.66364 5 9.5785 5.02112 9.50146 5.06166C9.42441 5.1022 9.35765 5.16102 9.30655 5.23335C9.25546 5.30569 9.22148 5.38951 9.20736 5.47803C9.19325 5.56654 9.19939 5.65727 9.2253 5.74286L9.3463 6.14286H7.55C7.40413 6.14286 7.26424 6.20306 7.16109 6.31023C7.05795 6.41739 7 6.56273 7 6.71429V20.4286C7 20.5801 7.05795 20.7255 7.16109 20.8326C7.26424 20.9398 7.40413 21 7.55 21H17.45C17.5959 21 17.7358 20.9398 17.8389 20.8326C17.9421 20.7255 18 20.5801 18 20.4286V6.71429C18 6.56273 17.9421 6.41739 17.8389 6.31023C17.7358 6.20306 17.5959 6.14286 17.45 6.14286H15.6548L15.7758 5.74286C15.8017 5.65718 15.8079 5.56635 15.7937 5.47774C15.7795 5.38914 15.7454 5.30525 15.6942 5.23289C15.643 5.16053 15.5761 5.10173 15.4989 5.06127C15.4217 5.02081 15.3365 4.99982 15.25 5H9.75ZM10.498 6.14286H14.502L14.1577 7.28572H10.8423L10.498 6.14286ZM12.3394 16.2617L16.1894 12.2617L15.4117 11.4526L11.95 15.0491L10.1394 13.1669L9.3606 13.976L11.5606 16.2617C11.6117 16.3149 11.6724 16.3571 11.7392 16.386C11.806 16.4148 11.8777 16.4296 11.95 16.4296C12.0223 16.4296 12.094 16.4148 12.1608 16.386C12.2276 16.3571 12.2883 16.3149 12.3394 16.2617Z" fill="white"/>
</svg>
