<svg width="36" height="36" viewBox="0 0 36 36" fill="none" xmlns="http://www.w3.org/2000/svg">
<rect x="1" y="1" width="34" height="34" rx="7" stroke="white" stroke-width="2"/>
<path d="M15.6 16.4804H12.1212L12.1224 16.4692C12.2804 15.6724 12.587 14.9155 13.0248 14.241C13.6779 13.2406 14.5944 12.4567 15.6648 11.9829C16.0288 11.8225 16.404 11.7016 16.7904 11.6201C17.5895 11.4525 18.4129 11.4525 19.212 11.6201C20.3598 11.8661 21.4132 12.4561 22.242 13.3171L23.9412 11.5565C23.1761 10.7597 22.2698 10.1241 21.2724 9.68493C20.7638 9.46189 20.2352 9.29148 19.6944 9.1762C18.5781 8.94127 17.4279 8.94127 16.3116 9.1762C15.7703 9.29181 15.2414 9.46263 14.7324 9.68618C13.233 10.3472 11.9495 11.4444 11.0364 12.8458C10.4225 13.7911 9.99277 14.8522 9.7716 15.9692C9.738 16.1376 9.72 16.3096 9.696 16.4804H6L10.8 21.468L15.6 16.4804ZM20.4 18.9742H23.8788L23.8776 18.9842C23.5636 20.5822 22.6571 21.9877 21.354 22.8969C20.7064 23.3548 19.9774 23.6735 19.2096 23.8346C18.4108 24.002 17.588 24.002 16.7892 23.8346C16.0224 23.6704 15.2939 23.3519 14.6448 22.8969C14.326 22.6735 14.0287 22.4188 13.7568 22.1363L12.06 23.8994C12.8256 24.6959 13.7322 25.331 14.73 25.7697C15.2388 25.9942 15.7704 26.165 16.308 26.2785C17.4239 26.5132 18.5737 26.5132 19.6896 26.2785C21.8407 25.8147 23.7328 24.4973 24.9636 22.6064C25.5768 21.6618 26.0061 20.6015 26.2272 19.4854C26.2596 19.3171 26.2788 19.145 26.3028 18.9742H30L25.2 13.9867L20.4 18.9742Z" fill="#F8F8F8"/>
</svg>
