<svg width="13" height="16" viewBox="0 0 13 16" fill="none" xmlns="http://www.w3.org/2000/svg">
<path d="M2.5 0C1.39688 0 0.5 0.896875 0.5 2V14C0.5 15.1031 1.39688 16 2.5 16H10.5C11.6031 16 12.5 15.1031 12.5 14V5H8.5C7.94688 5 7.5 4.55312 7.5 4V0H2.5ZM8.5 0V4H12.5L8.5 0ZM3.75 6.125H6C7.03438 6.125 7.875 6.96562 7.875 8C7.875 8.79688 7.37812 9.475 6.67812 9.74687L8.02187 11.0063L9.07812 10.0375C9.33125 9.80313 9.72812 9.82187 9.9625 10.075C10.1969 10.3281 10.1781 10.725 9.925 10.9594L8.9375 11.8656L9.92813 12.7937C10.1813 13.0312 10.1938 13.425 9.95625 13.6781C9.71875 13.9313 9.325 13.9438 9.07187 13.7063L8.0125 12.7125L6.92188 13.7125C6.66875 13.9469 6.27187 13.9281 6.0375 13.675C5.80312 13.4219 5.82187 13.025 6.075 12.7906L7.09375 11.8562L5.06875 9.95625C5.04063 9.93125 5.01875 9.90312 4.99687 9.875H4.37188V11.25C4.37188 11.5938 4.09063 11.875 3.74688 11.875C3.40313 11.875 3.12188 11.5938 3.12188 11.25V6.75C3.12188 6.40625 3.40313 6.125 3.74688 6.125H3.75ZM6 8.625C6.34375 8.625 6.625 8.34375 6.625 8C6.625 7.65625 6.34375 7.375 6 7.375H4.375V8.625H6Z" fill="#BA2C7C"/>
</svg>
