<svg width="16" height="16" viewBox="0 0 16 16" fill="none" xmlns="http://www.w3.org/2000/svg">
<path d="M1 13.8158C0.9999 12.9306 1.21946 12.0586 1.63986 11.2746C2.06025 10.4905 2.66894 9.8178 3.41372 9.31414C4.15849 8.81049 5.01714 8.4909 5.91603 8.38278C6.81492 8.27466 7.72723 8.38124 8.57472 8.69338M14.5646 10.8232C14.8435 10.5507 15.0001 10.181 15.0001 9.79559C15.0001 9.41015 14.8435 9.0405 14.5646 8.76796C14.2858 8.49541 13.9076 8.3423 13.5132 8.3423C13.1189 8.3423 12.7407 8.49541 12.4618 8.76796L9.65483 11.5129C9.4884 11.6755 9.36658 11.8764 9.30063 12.0972L8.71472 14.0607C8.69716 14.1196 8.6961 14.182 8.71168 14.2414C8.72725 14.3008 8.75887 14.3551 8.80324 14.3984C8.8476 14.4418 8.90308 14.4727 8.96386 14.4879C9.02464 14.5031 9.08849 14.5021 9.14873 14.4849L11.1577 13.9123C11.3836 13.8478 11.5892 13.7288 11.7555 13.5661L14.5646 10.8232Z" stroke="white" stroke-width="1.6" stroke-linecap="round" stroke-linejoin="round"/>
<path d="M6.59864 8.34274C8.53165 8.34274 10.0987 6.81116 10.0987 4.92186C10.0987 3.03256 8.53165 1.50098 6.59864 1.50098C4.66564 1.50098 3.09863 3.03256 3.09863 4.92186C3.09863 6.81116 4.66564 8.34274 6.59864 8.34274Z" stroke="white" stroke-width="1.6" stroke-linecap="round" stroke-linejoin="round"/>
</svg>
