<svg width="16" height="16" viewBox="0 0 16 16" fill="none" xmlns="http://www.w3.org/2000/svg">
<path d="M3.99961 4.8001C3.99961 3.9514 4.33675 3.13747 4.93687 2.53736C5.53698 1.93724 6.35092 1.6001 7.19961 1.6001C8.0483 1.6001 8.86224 1.93724 9.46235 2.53736C10.0625 3.13747 10.3996 3.9514 10.3996 4.8001C10.3996 5.64879 10.0625 6.46272 9.46235 7.06284C8.86224 7.66296 8.0483 8.0001 7.19961 8.0001C6.35092 8.0001 5.53698 7.66296 4.93687 7.06284C4.33675 6.46272 3.99961 5.64879 3.99961 4.8001ZM1.59961 10.4001C1.59961 9.5097 2.32201 8.8001 3.20681 8.8001H8.20521C7.55388 9.58768 7.19819 10.5781 7.19961 11.6001C7.19961 12.6425 7.56201 13.6001 8.16761 14.3545C7.85134 14.3849 7.52868 14.4001 7.19961 14.4001C5.71561 14.4001 4.33321 14.0913 3.30761 13.4377C2.26601 12.7737 1.59961 11.7521 1.59961 10.4001ZM15.1996 11.6001C15.1996 12.5549 14.8203 13.4706 14.1452 14.1457C13.4701 14.8208 12.5544 15.2001 11.5996 15.2001C10.6448 15.2001 9.72916 14.8208 9.05403 14.1457C8.37889 13.4706 7.99961 12.5549 7.99961 11.6001C7.99961 10.6453 8.37889 9.72964 9.05403 9.05451C9.72916 8.37938 10.6448 8.0001 11.5996 8.0001C12.5544 8.0001 13.4701 8.37938 14.1452 9.05451C14.8203 9.72964 15.1996 10.6453 15.1996 11.6001ZM13.4828 10.1169C13.4457 10.0796 13.4015 10.0501 13.3529 10.0299C13.3043 10.0098 13.2522 9.99938 13.1996 9.99938C13.147 9.99938 13.0949 10.0098 13.0463 10.0299C12.9977 10.0501 12.9536 10.0796 12.9164 10.1169L10.7996 12.2345L10.2828 11.7169C10.2077 11.6418 10.1058 11.5996 9.99961 11.5996C9.89339 11.5996 9.79152 11.6418 9.71641 11.7169C9.6413 11.792 9.5991 11.8939 9.5991 12.0001C9.5991 12.1063 9.6413 12.2082 9.71641 12.2833L10.5164 13.0833C10.5536 13.1205 10.5977 13.1501 10.6463 13.1703C10.6949 13.1904 10.747 13.2008 10.7996 13.2008C10.8522 13.2008 10.9043 13.1904 10.9529 13.1703C11.0015 13.1501 11.0457 13.1205 11.0828 13.0833L13.4828 10.6833C13.5201 10.6461 13.5496 10.602 13.5698 10.5534C13.5899 10.5048 13.6003 10.4527 13.6003 10.4001C13.6003 10.3475 13.5899 10.2954 13.5698 10.2468C13.5496 10.1982 13.5201 10.1541 13.4828 10.1169Z" fill="#169458"/>
</svg>
