<svg width="36" height="36" viewBox="0 0 36 36" fill="none" xmlns="http://www.w3.org/2000/svg">
<rect x="1" y="1" width="34" height="34" rx="7" fill="white" stroke="#D20006" stroke-width="2"/>
<path d="M10.1547 28.64C9.54044 28.64 9.02799 28.4347 8.61733 28.024C8.20667 27.6133 8.00089 27.1004 8 26.4853V12.128C8 11.5138 8.20578 11.0013 8.61733 10.5907C9.02888 10.18 9.54132 9.97422 10.1547 9.97333H12.5133V7H13.9493V9.97333H20.8199V7H22.1532V9.97333H24.5132C25.1266 9.97333 25.639 10.1791 26.0506 10.5907C26.4621 11.0022 26.6674 11.5147 26.6666 12.128V19.748C26.4443 19.7329 26.2221 19.7253 25.9999 19.7253C25.7777 19.7253 25.5554 19.7329 25.3332 19.748V17.4613H9.33333V26.4867C9.33333 26.6911 9.41866 26.8791 9.58932 27.0507C9.75999 27.2222 9.94799 27.3076 10.1533 27.3067H19.0519C19.0519 27.5289 19.0595 27.7511 19.0746 27.9733C19.0897 28.1956 19.1177 28.4178 19.1586 28.64H10.1547Z" fill="#D20006"/>
<path d="M21.3657 21.9733L27.9682 28.6399" stroke="#D20006"/>
<path d="M28 22.0052L21.3334 28.6078" stroke="#D20006"/>
</svg>
