<svg width="24" height="24" viewBox="0 0 24 24" fill="none" xmlns="http://www.w3.org/2000/svg">
<mask id="mask0_9079_1820" style="mask-type:alpha" maskUnits="userSpaceOnUse" x="0" y="0" width="24" height="24">
<rect width="24" height="24" fill="#D9D9D9"/>
</mask>
<g mask="url(#mask0_9079_1820)">
<path d="M5 22.3328C4.45 22.3328 3.97917 22.1369 3.5875 21.745C3.19583 21.3532 3 20.8821 3 20.3318V6.32438C3 5.77409 3.19583 5.30301 3.5875 4.91113C3.97917 4.51926 4.45 4.32332 5 4.32332H6V2.32227H8V4.32332H16V2.32227H18V4.32332H19C19.55 4.32332 20.0208 4.51926 20.4125 4.91113C20.8042 5.30301 21 5.77409 21 6.32438V20.3318C21 20.8821 20.8042 21.3532 20.4125 21.745C20.0208 22.1369 19.55 22.3328 19 22.3328H5ZM5 20.3318H19V10.3265H5V20.3318ZM5 8.32544H19V6.32438H5V8.32544ZM12 14.3286C11.7167 14.3286 11.4792 14.2327 11.2875 14.041C11.0958 13.8492 11 13.6116 11 13.3281C11 13.0446 11.0958 12.807 11.2875 12.6152C11.4792 12.4234 11.7167 12.3276 12 12.3276C12.2833 12.3276 12.5208 12.4234 12.7125 12.6152C12.9042 12.807 13 13.0446 13 13.3281C13 13.6116 12.9042 13.8492 12.7125 14.041C12.5208 14.2327 12.2833 14.3286 12 14.3286ZM8 14.3286C7.71667 14.3286 7.47917 14.2327 7.2875 14.041C7.09583 13.8492 7 13.6116 7 13.3281C7 13.0446 7.09583 12.807 7.2875 12.6152C7.47917 12.4234 7.71667 12.3276 8 12.3276C8.28333 12.3276 8.52083 12.4234 8.7125 12.6152C8.90417 12.807 9 13.0446 9 13.3281C9 13.6116 8.90417 13.8492 8.7125 14.041C8.52083 14.2327 8.28333 14.3286 8 14.3286ZM16 14.3286C15.7167 14.3286 15.4792 14.2327 15.2875 14.041C15.0958 13.8492 15 13.6116 15 13.3281C15 13.0446 15.0958 12.807 15.2875 12.6152C15.4792 12.4234 15.7167 12.3276 16 12.3276C16.2833 12.3276 16.5208 12.4234 16.7125 12.6152C16.9042 12.807 17 13.0446 17 13.3281C17 13.6116 16.9042 13.8492 16.7125 14.041C16.5208 14.2327 16.2833 14.3286 16 14.3286ZM12 18.3307C11.7167 18.3307 11.4792 18.2348 11.2875 18.0431C11.0958 17.8513 11 17.6137 11 17.3302C11 17.0467 11.0958 16.8091 11.2875 16.6173C11.4792 16.4256 11.7167 16.3297 12 16.3297C12.2833 16.3297 12.5208 16.4256 12.7125 16.6173C12.9042 16.8091 13 17.0467 13 17.3302C13 17.6137 12.9042 17.8513 12.7125 18.0431C12.5208 18.2348 12.2833 18.3307 12 18.3307ZM8 18.3307C7.71667 18.3307 7.47917 18.2348 7.2875 18.0431C7.09583 17.8513 7 17.6137 7 17.3302C7 17.0467 7.09583 16.8091 7.2875 16.6173C7.47917 16.4256 7.71667 16.3297 8 16.3297C8.28333 16.3297 8.52083 16.4256 8.7125 16.6173C8.90417 16.8091 9 17.0467 9 17.3302C9 17.6137 8.90417 17.8513 8.7125 18.0431C8.52083 18.2348 8.28333 18.3307 8 18.3307ZM16 18.3307C15.7167 18.3307 15.4792 18.2348 15.2875 18.0431C15.0958 17.8513 15 17.6137 15 17.3302C15 17.0467 15.0958 16.8091 15.2875 16.6173C15.4792 16.4256 15.7167 16.3297 16 16.3297C16.2833 16.3297 16.5208 16.4256 16.7125 16.6173C16.9042 16.8091 17 17.0467 17 17.3302C17 17.6137 16.9042 17.8513 16.7125 18.0431C16.5208 18.2348 16.2833 18.3307 16 18.3307Z" fill="white"/>
</g>
</svg>
