<svg width="30" height="30" viewBox="0 0 30 30" fill="none" xmlns="http://www.w3.org/2000/svg">
<rect width="30" height="30" rx="8" fill="#D20006"/>
<path d="M8.83333 14.5V12C8.83324 11.4709 9.001 10.9554 9.31247 10.5278C9.62395 10.1001 10.0631 9.78225 10.5667 9.62M13.8333 9.5H22.1667M22.1667 9.5L19.6667 7M22.1667 9.5L19.6667 12M22.1667 14.5V17C22.1669 17.2503 22.1295 17.4992 22.0558 17.7383M20.3975 19.3917C20.1606 19.4638 19.9143 19.5003 19.6667 19.5H8.83333M8.83333 19.5L11.3333 22M8.83333 19.5L11.3333 17M8 7L23 22" stroke="white" stroke-width="1.4" stroke-linecap="round" stroke-linejoin="round"/>
</svg>
