<svg width="14" height="14" viewBox="0 0 14 14" fill="none" xmlns="http://www.w3.org/2000/svg">
<path d="M3.84211 10.7895V9.52632M7 10.7895V8.89474M10.1579 10.7895V7.63158M1 7C1 4.17179 1 2.75705 1.87853 1.87853C2.75705 1 4.17116 1 7 1C9.82821 1 11.2429 1 12.1215 1.87853C13 2.75705 13 4.17116 13 7C13 9.82821 13 11.2429 12.1215 12.1215C11.2429 13 9.82884 13 7 13C4.17179 13 2.75705 13 1.87853 12.1215C1 11.2429 1 9.82884 1 7Z"stroke="currentColor" stroke-linecap="round" stroke-linejoin="round"/>
<path d="M3.20605 6.67536C4.56711 6.72083 7.65363 6.51557 9.40942 3.72904M8.25869 3.39241L9.44353 3.20167C9.58753 3.18336 9.79974 3.29767 9.85216 3.43346L10.1648 4.46799"stroke="currentColor" stroke-linecap="round" stroke-linejoin="round"/>
</svg>
