<svg width="26" height="26" viewBox="0 0 26 26" fill="none" xmlns="http://www.w3.org/2000/svg">
<rect width="26" height="26" rx="8" fill="#169458"/>
<path d="M7.25689 20C6.89859 20 6.59967 19.8817 6.36011 19.6452C6.12056 19.4087 6.00052 19.1135 6 18.7597V8.95282C6 8.59956 6.12004 8.30466 6.36011 8.06813C6.60019 7.8316 6.89911 7.71307 7.25689 7.71256H8.63278V6H9.47044V7.71256H15.0347V6H15.8124V7.71256H17.1883C17.5461 7.71256 17.845 7.83108 18.0851 8.06813C18.3252 8.30517 18.445 8.60033 18.4444 8.95359V12.7934H17.6667V12.0255H6.77778V18.7597C6.77778 18.8775 6.82756 18.9858 6.92711 19.0846C7.02667 19.1834 7.13633 19.2325 7.25611 19.232H12.1024V20H7.25689ZM13.9574 20V18.3028L18.1053 14.2272C18.1821 14.1607 18.2617 14.112 18.3441 14.0813C18.4271 14.0496 18.51 14.0337 18.593 14.0337C18.6786 14.0337 18.7651 14.0501 18.8528 14.0828C18.9409 14.1161 19.0182 14.1658 19.0846 14.2318L19.804 14.9568C19.8678 15.0325 19.9165 15.1114 19.9502 15.1933C19.9834 15.2747 20 15.3564 20 15.4383C20 15.5202 19.9865 15.6026 19.9596 15.6856C19.9326 15.7685 19.8807 15.8479 19.804 15.9236L15.6756 20H13.9574ZM18.593 16.1717L19.3124 15.4375L18.593 14.7133L17.8541 15.4429L18.593 16.1717Z" fill="#F8F8F8"/>
</svg>
