<svg width="30" height="30" viewBox="0 0 30 30" fill="none" xmlns="http://www.w3.org/2000/svg">
<rect width="30" height="30" rx="8" fill="#D20006"/>
<path d="M15 16.26L17.61 18.87C17.775 19.035 17.985 19.1175 18.24 19.1175C18.495 19.1175 18.705 19.035 18.87 18.87C19.035 18.705 19.1175 18.495 19.1175 18.24C19.1175 17.985 19.035 17.775 18.87 17.61L16.26 15L18.87 12.39C19.035 12.225 19.1175 12.015 19.1175 11.76C19.1175 11.505 19.035 11.295 18.87 11.13C18.705 10.965 18.495 10.8825 18.24 10.8825C17.985 10.8825 17.775 10.965 17.61 11.13L15 13.74L12.39 11.13C12.225 10.965 12.015 10.8825 11.76 10.8825C11.505 10.8825 11.295 10.965 11.13 11.13C10.965 11.295 10.8825 11.505 10.8825 11.76C10.8825 12.015 10.965 12.225 11.13 12.39L13.74 15L11.13 17.61C10.965 17.775 10.8825 17.985 10.8825 18.24C10.8825 18.495 10.965 18.705 11.13 18.87C11.295 19.035 11.505 19.1175 11.76 19.1175C12.015 19.1175 12.225 19.035 12.39 18.87L15 16.26ZM15 24C13.755 24 12.585 23.7636 11.49 23.2908C10.395 22.818 9.4425 22.1769 8.6325 21.3675C7.8225 20.5581 7.1814 19.6056 6.7092 18.51C6.237 17.4144 6.0006 16.2444 6 15C5.9994 13.7556 6.2358 12.5856 6.7092 11.49C7.1826 10.3944 7.8237 9.4419 8.6325 8.6325C9.4413 7.8231 10.3938 7.182 11.49 6.7092C12.5862 6.2364 13.7562 6 15 6C16.2438 6 17.4138 6.2364 18.51 6.7092C19.6062 7.182 20.5587 7.8231 21.3675 8.6325C22.1763 9.4419 22.8177 10.3944 23.2917 11.49C23.7657 12.5856 24.0018 13.7556 24 15C23.9982 16.2444 23.7618 17.4144 23.2908 18.51C22.8198 19.6056 22.1787 20.5581 21.3675 21.3675C20.5563 22.1769 19.6038 22.8183 18.51 23.2917C17.4162 23.7651 16.2462 24.0012 15 24Z" fill="white"/>
</svg>
