<svg width="12" height="14" viewBox="0 0 12 14" fill="none" xmlns="http://www.w3.org/2000/svg">
<path d="M3.65217 6.46154C2.9603 6.46154 2.29677 6.17789 1.80755 5.67298C1.31832 5.16807 1.04348 4.48328 1.04348 3.76923V1.61538C1.04348 1.47258 1.09845 1.33562 1.19629 1.23463C1.29414 1.13365 1.42684 1.07692 1.56522 1.07692H2.08696C2.22533 1.07692 2.35804 1.02019 2.45588 0.919211C2.55373 0.81823 2.60869 0.68127 2.60869 0.538462C2.60869 0.395653 2.55373 0.258693 2.45588 0.157712C2.35804 0.0567306 2.22533 0 2.08696 0H1.56522C1.1501 0 0.751976 0.170192 0.458441 0.473135C0.164906 0.776079 0 1.18696 0 1.61538V3.76923C0.000670654 4.37755 0.144403 4.97661 0.418852 5.51497C0.693301 6.05332 1.09026 6.51488 1.57565 6.86C2.04247 7.28392 2.42098 7.80128 2.68824 8.3807C2.95551 8.96013 3.10594 9.58954 3.13043 10.2308C3.13043 11.2304 3.51521 12.1892 4.20013 12.896C4.88505 13.6029 5.81399 14 6.78261 14C7.75122 14 8.68017 13.6029 9.36508 12.896C10.05 12.1892 10.4348 11.2304 10.4348 10.2308V9.61692C10.9266 9.48587 11.3552 9.17418 11.6403 8.7403C11.9254 8.30642 12.0474 7.78013 11.9834 7.26008C11.9194 6.74002 11.6738 6.26191 11.2926 5.91537C10.9115 5.56882 10.421 5.37762 9.91304 5.37762C9.40509 5.37762 8.91457 5.56882 8.53344 5.91537C8.15231 6.26191 7.90672 6.74002 7.84272 7.26008C7.77871 7.78013 7.90068 8.30642 8.18577 8.7403C8.47085 9.17418 8.89948 9.48587 9.3913 9.61692V10.2308C9.3913 10.9448 9.11646 11.6296 8.62723 12.1345C8.13801 12.6394 7.47447 12.9231 6.78261 12.9231C6.09074 12.9231 5.42721 12.6394 4.93798 12.1345C4.44875 11.6296 4.17391 10.9448 4.17391 10.2308C4.19972 9.58874 4.35179 8.95884 4.62086 8.37937C4.88994 7.7999 5.27041 7.28297 5.73913 6.86C6.22259 6.51368 6.61752 6.0516 6.89011 5.51332C7.16271 4.97504 7.30484 4.3766 7.30434 3.76923V1.61538C7.30434 1.18696 7.13944 0.776079 6.8459 0.473135C6.55237 0.170192 6.15425 0 5.73913 0H5.21739C5.07902 0 4.94631 0.0567306 4.84846 0.157712C4.75062 0.258693 4.69565 0.395653 4.69565 0.538462C4.69565 0.68127 4.75062 0.81823 4.84846 0.919211C4.94631 1.02019 5.07902 1.07692 5.21739 1.07692H5.73913C5.8775 1.07692 6.01021 1.13365 6.10805 1.23463C6.2059 1.33562 6.26087 1.47258 6.26087 1.61538V3.76923C6.26087 4.12279 6.19339 4.47289 6.06229 4.79953C5.93119 5.12618 5.73904 5.42298 5.4968 5.67298C5.25456 5.92298 4.96698 6.1213 4.65048 6.2566C4.33397 6.3919 3.99475 6.46154 3.65217 6.46154ZM9.91304 8.61539C9.63629 8.61539 9.37088 8.50192 9.17519 8.29996C8.9795 8.098 8.86956 7.82408 8.86956 7.53846C8.86956 7.25284 8.9795 6.97892 9.17519 6.77696C9.37088 6.575 9.63629 6.46154 9.91304 6.46154C10.1898 6.46154 10.4552 6.575 10.6509 6.77696C10.8466 6.97892 10.9565 7.25284 10.9565 7.53846C10.9565 7.82408 10.8466 8.098 10.6509 8.29996C10.4552 8.50192 10.1898 8.61539 9.91304 8.61539Z" fill="#A52B0E"/>
</svg>
