<svg width="24" height="24" viewBox="0 0 24 24" fill="none" xmlns="http://www.w3.org/2000/svg">
<path d="M12.0001 22.0251C11.7334 22.0251 11.4791 21.9751 11.2371 21.8751C10.9951 21.7751 10.7744 21.6334 10.5751 21.4501L2.5501 13.4251C2.36676 13.2251 2.2251 13.0041 2.1251 12.7621C2.0251 12.5201 1.9751 12.2661 1.9751 12.0001C1.9751 11.7341 2.0251 11.4758 2.1251 11.2251C2.2251 10.9744 2.36676 10.7578 2.5501 10.5751L10.5751 2.5501C10.7751 2.3501 10.9961 2.2041 11.2381 2.1121C11.4801 2.0201 11.7341 1.97444 12.0001 1.9751C12.2661 1.97577 12.5244 2.02177 12.7751 2.1131C13.0258 2.20444 13.2424 2.3501 13.4251 2.5501L21.4501 10.5751C21.6501 10.7584 21.7961 10.9751 21.8881 11.2251C21.9801 11.4751 22.0258 11.7334 22.0251 12.0001C22.0244 12.2668 21.9788 12.5211 21.8881 12.7631C21.7974 13.0051 21.6514 13.2258 21.4501 13.4251L13.4251 21.4501C13.2418 21.6334 13.0251 21.7751 12.7751 21.8751C12.5251 21.9751 12.2668 22.0251 12.0001 22.0251ZM12.0001 13.0001C12.2834 13.0001 12.5211 12.9044 12.7131 12.7131C12.9051 12.5218 13.0008 12.2841 13.0001 12.0001V8.0001C13.0001 7.71677 12.9041 7.47944 12.7121 7.28811C12.5201 7.09677 12.2828 7.00077 12.0001 7.0001C11.7174 6.99944 11.4801 7.09544 11.2881 7.28811C11.0961 7.48077 11.0001 7.7181 11.0001 8.0001V12.0001C11.0001 12.2834 11.0961 12.5211 11.2881 12.7131C11.4801 12.9051 11.7174 13.0008 12.0001 13.0001ZM12.0001 16.0001C12.2834 16.0001 12.5211 15.9041 12.7131 15.7121C12.9051 15.5201 13.0008 15.2828 13.0001 15.0001C12.9994 14.7174 12.9034 14.4801 12.7121 14.2881C12.5208 14.0961 12.2834 14.0001 12.0001 14.0001C11.7168 14.0001 11.4794 14.0961 11.2881 14.2881C11.0968 14.4801 11.0008 14.7174 11.0001 15.0001C10.9994 15.2828 11.0954 15.5204 11.2881 15.7131C11.4808 15.9058 11.7181 16.0014 12.0001 16.0001Z" fill="#F28729"/>
</svg>
