<svg width="24" height="24" viewBox="0 0 24 24" fill="none" xmlns="http://www.w3.org/2000/svg">
<mask id="mask0_8542_3971" style="mask-type:alpha" maskUnits="userSpaceOnUse" x="0" y="0" width="24" height="24">
<rect width="24" height="24" fill="#D9D9D9"/>
</mask>
<g mask="url(#mask0_8542_3971)">
<path d="M7.00195 20.9998C6.45195 20.9998 5.98112 20.8039 5.58945 20.4123C5.19779 20.0206 5.00195 19.5498 5.00195 18.9998V5.99976H4.00195V3.99976H9.00195V2.99976H15.002V3.99976H20.002V5.99976H19.002V18.9998C19.002 19.5498 18.8061 20.0206 18.4145 20.4123C18.0228 20.8039 17.552 20.9998 17.002 20.9998H7.00195ZM17.002 5.99976H7.00195V18.9998H17.002V5.99976ZM9.00195 16.9998H11.002V7.99976H9.00195V16.9998ZM13.002 16.9998H15.002V7.99976H13.002V16.9998Z" fill="#D20006"/>
</g>
</svg>
