<svg width="17" height="20" viewBox="0 0 17 20" fill="none" xmlns="http://www.w3.org/2000/svg">
<path d="M3.17657 19.1493C2.63257 19.1493 2.16952 18.9582 1.78743 18.5761C1.40533 18.194 1.21429 17.7314 1.21429 17.1882V2.14929H0V0.935H4.85714V0H12.1429V0.935H17V2.14929H15.7857V17.1882C15.7857 17.7468 15.5987 18.2135 15.2247 18.5883C14.8507 18.9631 14.3836 19.1501 13.8234 19.1493H3.17657ZM14.5714 2.14929H2.42857V17.1882C2.42857 17.406 2.49859 17.5849 2.63864 17.7249C2.77869 17.865 2.958 17.935 3.17657 17.935H13.8246C14.0108 17.935 14.182 17.8573 14.3383 17.7019C14.4945 17.5464 14.5722 17.3748 14.5714 17.187V2.14929ZM5.83829 15.5064H7.05257V4.57786H5.83829V15.5064ZM9.94743 15.5064H11.1617V4.57786H9.94743V15.5064Z" fill="#D20006"/>
</svg>
