<svg width="16" height="18" viewBox="0 0 16 18" fill="none" xmlns="http://www.w3.org/2000/svg">
<path d="M9.33102 5.44927L5.50202 9.20327C5.13802 9.56327 4.93802 10.0553 4.94602 10.5723C4.95693 11.0953 5.17232 11.5932 5.54602 11.9593C5.92102 12.3303 6.42602 12.5433 6.94902 12.5523C7.20505 12.5577 7.45956 12.5118 7.69759 12.4173C7.93562 12.3229 8.15235 12.1817 8.33502 12.0023L12.163 8.24827C12.5242 7.891 12.8089 7.46408 13.0001 6.99342C13.1913 6.52276 13.2848 6.01817 13.275 5.51027C13.254 4.46418 12.8239 3.46798 12.077 2.73527C11.3281 1.99412 10.3225 1.56977 9.26902 1.55027C8.75751 1.54006 8.2491 1.6319 7.77349 1.82043C7.29788 2.00895 6.86462 2.29038 6.49902 2.64827L2.66802 6.40327C2.12672 6.93942 1.69988 7.57987 1.41334 8.28581C1.1268 8.99176 0.986531 9.74852 1.00102 10.5103C1.03322 12.079 1.67866 13.5727 2.79902 14.6713C3.92188 15.7827 5.4294 16.4194 7.00902 16.4493C7.77658 16.4653 8.53962 16.3279 9.25343 16.0453C9.96724 15.7626 10.6175 15.3404 11.166 14.8033L14.995 11.0473" stroke="#222222" stroke-width="2" stroke-linecap="round" stroke-linejoin="round"/>
</svg>
