<svg width="15" height="16" viewBox="0 0 15 16" fill="none" xmlns="http://www.w3.org/2000/svg">
<path d="M15 9.00012V12.0001H12V11.0001H13.1953C12.9818 10.6772 12.7005 10.4298 12.3516 10.2579C12.0026 10.0861 11.6354 10.0001 11.25 10.0001C10.9688 10.0001 10.6927 10.047 10.4219 10.1407C10.151 10.2345 9.91146 10.3699 9.70312 10.547C9.49479 10.7241 9.32552 10.935 9.19531 11.1798C9.0651 11.4246 9 11.698 9 12.0001H8C8 11.5574 8.08854 11.1538 8.26562 10.7892C8.44271 10.4246 8.6849 10.1069 8.99219 9.83606C9.29948 9.56523 9.64583 9.3595 10.0312 9.21887C10.4167 9.07825 10.8229 9.00533 11.25 9.00012C11.5208 9.00012 11.7865 9.02877 12.0469 9.08606C12.3073 9.14335 12.5573 9.2345 12.7969 9.3595C13.0365 9.4845 13.2578 9.63033 13.4609 9.797C13.6641 9.96366 13.8438 10.1642 14 10.3986V9.00012H15ZM11.75 15.0001C12.0312 15.0001 12.3047 14.9532 12.5703 14.8595C12.8359 14.7657 13.0755 14.6303 13.2891 14.4532C13.5026 14.2762 13.6745 14.0652 13.8047 13.8204C13.9349 13.5756 14 13.3022 14 13.0001H15C15 13.4428 14.9115 13.8465 14.7344 14.2111C14.5573 14.5756 14.3151 14.8934 14.0078 15.1642C13.7005 15.435 13.3542 15.6407 12.9688 15.7814C12.5833 15.922 12.1771 15.9949 11.75 16.0001C11.4792 16.0001 11.2135 15.9715 10.9531 15.9142C10.6927 15.8569 10.4427 15.7657 10.2031 15.6407C9.96354 15.5157 9.74219 15.3699 9.53906 15.2032C9.33594 15.0366 9.15625 14.8361 9 14.6017V16.0001H8V13.0001H11V14.0001H9.80469C10.0182 14.323 10.2995 14.5704 10.6484 14.7423C10.9974 14.9142 11.3646 15.0001 11.75 15.0001ZM10 6.00012C9.58854 6.00012 9.20052 6.07825 8.83594 6.2345C8.47135 6.39075 8.15365 6.60429 7.88281 6.87512C7.61198 7.14596 7.39844 7.46366 7.24219 7.82825C7.08594 8.19283 7.00521 8.58085 7 8.99231C7 9.47668 6.89323 9.92981 6.67969 10.3517C6.46615 10.7736 6.16146 11.1303 5.76562 11.422C6 11.5418 6.22135 11.6824 6.42969 11.8439C6.63802 12.0053 6.82812 12.185 7 12.3829L6.20312 13.0001C5.92188 12.6824 5.59115 12.4376 5.21094 12.2657C4.83073 12.0939 4.42708 12.0053 4 12.0001C3.58333 12.0001 3.19531 12.0782 2.83594 12.2345C2.47656 12.3907 2.15885 12.6043 1.88281 12.8751C1.60677 13.146 1.39062 13.4663 1.23438 13.8361C1.07812 14.2059 1 14.5939 1 15.0001H0C0 14.6199 0.0520833 14.2527 0.15625 13.8986C0.260417 13.5444 0.408854 13.2085 0.601562 12.8907C0.794271 12.573 1.02865 12.2918 1.30469 12.047C1.58073 11.8022 1.88802 11.5913 2.22656 11.4142C1.84115 11.1329 1.54167 10.7814 1.32812 10.3595C1.11458 9.93762 1.00521 9.4845 1 9.00012C1 8.58866 1.07812 8.20064 1.23438 7.83606C1.39062 7.47148 1.60417 7.15377 1.875 6.88293C2.14583 6.6121 2.46354 6.39596 2.82812 6.2345C3.19271 6.07304 3.58333 5.99491 4 6.00012C4.47917 6.00012 4.92969 6.10689 5.35156 6.32043C5.77344 6.53398 6.1276 6.83606 6.41406 7.22668C6.61198 6.83606 6.86458 6.4871 7.17188 6.17981C7.47917 5.87252 7.83073 5.61731 8.22656 5.41418C7.84115 5.13293 7.54167 4.78137 7.32812 4.3595C7.11458 3.93762 7.00521 3.4845 7 3.00012C7 2.58866 7.07812 2.20064 7.23438 1.83606C7.39062 1.47148 7.60417 1.15377 7.875 0.882935C8.14583 0.612101 8.46354 0.395955 8.82812 0.234497C9.19271 0.0730387 9.58333 -0.00508626 10 0.00012207C10.4115 0.00012207 10.7995 0.0782471 11.1641 0.234497C11.5286 0.390747 11.8464 0.604289 12.1172 0.875122C12.388 1.14596 12.6042 1.46627 12.7656 1.83606C12.9271 2.20585 13.0052 2.59387 13 3.00012C13 3.47929 12.8932 3.92981 12.6797 4.35168C12.4661 4.77356 12.1641 5.12773 11.7734 5.41418C12.2943 5.6746 12.7344 6.02877 13.0938 6.47668C13.4531 6.9246 13.7083 7.43241 13.8594 8.00012H12.8125C12.7083 7.70325 12.5625 7.43241 12.375 7.18762C12.1875 6.94283 11.9714 6.73189 11.7266 6.55481C11.4818 6.37773 11.2135 6.24231 10.9219 6.14856C10.6302 6.05481 10.3229 6.00533 10 6.00012ZM10 1.00012C9.72396 1.00012 9.46615 1.05221 9.22656 1.15637C8.98698 1.26054 8.77344 1.40377 8.58594 1.58606C8.39844 1.76835 8.25521 1.97929 8.15625 2.21887C8.05729 2.45846 8.00521 2.71887 8 3.00012C8 3.27616 8.05208 3.53398 8.15625 3.77356C8.26042 4.01314 8.40365 4.22668 8.58594 4.41418C8.76823 4.60168 8.97917 4.74491 9.21875 4.84387C9.45833 4.94283 9.71875 4.99491 10 5.00012C10.276 5.00012 10.5339 4.94804 10.7734 4.84387C11.013 4.73971 11.2266 4.59648 11.4141 4.41418C11.6016 4.23189 11.7448 4.02096 11.8438 3.78137C11.9427 3.54179 11.9948 3.28137 12 3.00012C12 2.72408 11.9479 2.46627 11.8438 2.22668C11.7396 1.9871 11.5964 1.77356 11.4141 1.58606C11.2318 1.39856 11.0208 1.25533 10.7812 1.15637C10.5417 1.05741 10.2812 1.00533 10 1.00012ZM4 11.0001C4.27604 11.0001 4.53385 10.948 4.77344 10.8439C5.01302 10.7397 5.22656 10.5965 5.41406 10.4142C5.60156 10.2319 5.74479 10.021 5.84375 9.78137C5.94271 9.54179 5.99479 9.28137 6 9.00012C6 8.72408 5.94792 8.46366 5.84375 8.21887C5.73958 7.97408 5.59896 7.76314 5.42188 7.58606C5.24479 7.40898 5.03125 7.26575 4.78125 7.15637C4.53125 7.047 4.27083 6.99491 4 7.00012C3.72396 7.00012 3.46615 7.05221 3.22656 7.15637C2.98698 7.26054 2.77344 7.40377 2.58594 7.58606C2.39844 7.76835 2.25521 7.97929 2.15625 8.21887C2.05729 8.45846 2.00521 8.71887 2 9.00012C2 9.27616 2.05208 9.53398 2.15625 9.77356C2.26042 10.0131 2.40365 10.2267 2.58594 10.4142C2.76823 10.6017 2.97917 10.7449 3.21875 10.8439C3.45833 10.9428 3.71875 10.9949 4 11.0001Z" fill="#6F46C1"/>
</svg>
