<svg width="12" height="15" viewBox="0 0 12 15" fill="none" xmlns="http://www.w3.org/2000/svg">
<path d="M8.5 2H10C10.2652 2 10.5196 2.10536 10.7071 2.29289C10.8946 2.48043 11 2.73478 11 3V13C11 13.2652 10.8946 13.5196 10.7071 13.7071C10.5196 13.8946 10.2652 14 10 14H2C1.73478 14 1.48043 13.8946 1.29289 13.7071C1.10536 13.5196 1 13.2652 1 13V3C1 2.73478 1.10536 2.48043 1.29289 2.29289C1.48043 2.10536 1.73478 2 2 2H3.5"stroke="currentColor" stroke-width="1.2" stroke-linecap="round" stroke-linejoin="round"/>
<path d="M7.50033 1H4.50033C4.23511 1 3.98076 1.10536 3.79322 1.29289C3.60569 1.48043 3.50033 1.73478 3.50033 2V2.5C3.50033 2.76522 3.60569 3.01957 3.79322 3.20711C3.98076 3.39464 4.23511 3.5 4.50033 3.5H7.50033C7.76554 3.5 8.0199 3.39464 8.20743 3.20711C8.39497 3.01957 8.50033 2.76522 8.50033 2.5V2C8.50033 1.73478 8.39497 1.48043 8.20743 1.29289C8.0199 1.10536 7.76554 1 7.50033 1ZM5.30333 5.71C5.18928 5.71 5.07991 5.7553 4.99927 5.83594C4.91863 5.91658 4.87333 6.02596 4.87333 6.14V7.347H3.66633C3.55228 7.347 3.44291 7.3923 3.36227 7.47294C3.28163 7.55358 3.23633 7.66296 3.23633 7.777V9.172C3.23633 9.409 3.42933 9.602 3.66633 9.602H4.87333V10.809C4.87333 11.046 5.06633 11.239 5.30333 11.239H6.69833C6.81237 11.239 6.92174 11.1937 7.00238 11.1131C7.08302 11.0324 7.12833 10.923 7.12833 10.809V9.6H8.33533C8.44937 9.6 8.55874 9.5547 8.63938 9.47406C8.72002 9.39342 8.76533 9.28404 8.76533 9.17V7.777C8.76506 7.66313 8.71964 7.55401 8.63903 7.47359C8.55842 7.39317 8.4492 7.348 8.33533 7.348H7.12833V6.139C7.12806 6.02513 7.08264 5.91601 7.00203 5.83559C6.92142 5.75517 6.8122 5.71 6.69833 5.71H5.30333Z"stroke="currentColor" stroke-width="1.2" stroke-linecap="round" stroke-linejoin="round"/>
</svg>
