<svg width="26" height="26" viewBox="0 0 26 26" fill="none" xmlns="http://www.w3.org/2000/svg">
<rect width="26" height="26" rx="8" fill="#0E2970"/>
<path fill-rule="evenodd" clip-rule="evenodd" d="M18.5129 17.4444C16.7601 12.9049 14.7142 11.7084 14.7142 9.44444V6.77778H15.1428C15.2564 6.77778 15.3654 6.73095 15.4458 6.6476C15.5262 6.56425 15.5713 6.45121 15.5713 6.33333V5.44444C15.5713 5.32657 15.5262 5.21352 15.4458 5.13017C15.3654 5.04683 15.2564 5 15.1428 5H10.8572C10.7436 5 10.6346 5.04683 10.5542 5.13017C10.4738 5.21352 10.4287 5.32657 10.4287 5.44444V6.33333C10.4287 6.45121 10.4738 6.56425 10.5542 6.6476C10.6346 6.73095 10.7436 6.77778 10.8572 6.77778H11.2858V9.44444C11.2858 11.7084 9.23986 12.9049 7.48707 17.4444C6.9291 18.8889 5.49601 21 13 21C20.504 21 19.0709 18.8889 18.5129 17.4444ZM17.127 19.0009C16.5253 19.1876 15.3279 19.4 13 19.4C10.6721 19.4 9.47471 19.1876 8.87302 19.0009C8.6596 18.9351 8.57646 18.6782 8.65189 18.4427C8.84045 17.8471 9.19615 16.8178 9.86127 15.6684C11.4863 12.8604 13.1723 16.1102 14.5754 16.1102C15.9785 16.1102 15.5936 14.7227 16.1387 15.6684C16.6401 16.5437 17.0457 17.4742 17.3481 18.4427C17.4235 18.6782 17.3404 18.9342 17.127 19.0009Z" fill="white"/>
</svg>
