<svg width="30" height="30" viewBox="0 0 30 30" fill="none" xmlns="http://www.w3.org/2000/svg">
<path d="M30 15C30 23.2843 23.2843 30 15 30C6.71573 30 0 23.2843 0 15C0 6.71573 6.71573 0 15 0C23.2843 0 30 6.71573 30 15Z" fill="#D20006"/>
<path d="M13.6 9C12.8574 9 12.1452 9.30436 11.6201 9.84614C11.095 10.3879 10.8 11.1227 10.8 11.8889C10.8 12.6551 11.095 13.3899 11.6201 13.9316C12.1452 14.4734 12.8574 14.7778 13.6 14.7778C14.3426 14.7778 15.0548 14.4734 15.5799 13.9316C16.105 13.3899 16.4 12.6551 16.4 11.8889C16.4 11.1227 16.105 10.3879 15.5799 9.84614C15.0548 9.30436 14.3426 9 13.6 9ZM18.85 15.5C17.1 15.5 15.7 16.9444 15.7 18.75C15.7 20.5556 17.1 22 18.85 22C20.6 22 22 20.5556 22 18.75C22 16.9444 20.6 15.5 18.85 15.5ZM13.6 16.2222C10.506 16.2222 8 17.515 8 19.1111V20.5556H14.65C14.419 19.9834 14.3 19.3698 14.3 18.75C14.303 17.8937 14.533 17.0545 14.965 16.3233C14.524 16.2656 14.076 16.2222 13.6 16.2222ZM18.85 16.5833C20.012 16.5833 20.95 17.5511 20.95 18.75C20.95 19.1544 20.845 19.53 20.656 19.8333L17.8 16.8867C18.094 16.6917 18.458 16.5833 18.85 16.5833ZM17.044 17.6667L19.9 20.6133C19.606 20.8083 19.242 20.9167 18.85 20.9167C17.688 20.9167 16.75 19.9489 16.75 18.75C16.75 18.3456 16.855 17.97 17.044 17.6667Z" fill="white"/>
</svg>
