<svg width="12" height="12" viewBox="0 0 12 12" fill="none" xmlns="http://www.w3.org/2000/svg">
<path d="M1.34896 1.33333H5.39585C5.76681 1.33333 6.07033 1.03333 6.07033 0.666667C6.07033 0.3 5.76681 0 5.39585 0H1.34896C0.607033 0 0 0.6 0 1.33333V10.6667C0 11.4 0.607033 12 1.34896 12H5.39585C5.76681 12 6.07033 11.7 6.07033 11.3333C6.07033 10.9667 5.76681 10.6667 5.39585 10.6667H1.34896V1.33333Z" fill="#D20006"/>
<path d="M11.9046 5.76669L10.0228 3.90669C9.97587 3.85906 9.91564 3.82635 9.84982 3.81274C9.78399 3.79913 9.71555 3.80525 9.65326 3.8303C9.59097 3.85536 9.53766 3.89822 9.50015 3.9534C9.46265 4.00857 9.44265 4.07355 9.44272 4.14003V5.33336H4.72136C4.35039 5.33336 4.04688 5.63336 4.04688 6.00003C4.04688 6.36669 4.35039 6.66669 4.72136 6.66669H9.44272V7.86003C9.44272 8.16003 9.80694 8.30669 10.016 8.09336L11.8978 6.23336C12.0327 6.10669 12.0327 5.89336 11.9046 5.76669Z" fill="#D20006"/>
</svg>
