<svg width="30" height="30" viewBox="0 0 30 30" fill="none" xmlns="http://www.w3.org/2000/svg">
<circle cx="15" cy="15" r="15" fill="#BF83FF"/>
<path fill-rule="evenodd" clip-rule="evenodd" d="M20.5129 19.4444C18.7601 14.9049 16.7142 13.7084 16.7142 11.4444V8.77778H17.1428C17.2564 8.77778 17.3654 8.73095 17.4458 8.6476C17.5262 8.56425 17.5713 8.45121 17.5713 8.33333V7.44444C17.5713 7.32657 17.5262 7.21352 17.4458 7.13017C17.3654 7.04683 17.2564 7 17.1428 7H12.8572C12.7436 7 12.6346 7.04683 12.5542 7.13017C12.4738 7.21352 12.4287 7.32657 12.4287 7.44444V8.33333C12.4287 8.45121 12.4738 8.56425 12.5542 8.6476C12.6346 8.73095 12.7436 8.77778 12.8572 8.77778H13.2858V11.4444C13.2858 13.7084 11.2399 14.9049 9.48707 19.4444C8.9291 20.8889 7.49601 23 15 23C22.504 23 21.0709 20.8889 20.5129 19.4444ZM19.127 21.0009C18.5253 21.1876 17.3279 21.4 15 21.4C12.6721 21.4 11.4747 21.1876 10.873 21.0009C10.6596 20.9351 10.5765 20.6782 10.6519 20.4427C10.8404 19.8471 11.1961 18.8178 11.8613 17.6684C13.4863 14.8604 15.1723 18.1102 16.5754 18.1102C17.9785 18.1102 17.5936 16.7227 18.1387 17.6684C18.6401 18.5437 19.0457 19.4742 19.3481 20.4427C19.4235 20.6782 19.3404 20.9342 19.127 21.0009Z" fill="white"/>
</svg>
