<svg width="30" height="30" viewBox="0 0 30 30" fill="none" xmlns="http://www.w3.org/2000/svg">
<rect width="30" height="30" rx="8" fill="#0E2970"/>
<path d="M24.2311 14.419L22.1835 12.1201L22.4688 9.07702L19.4395 8.39893L17.8534 5.76929L15.0003 6.97661L12.1472 5.76929L10.5611 8.39893L7.53177 9.06875L7.81708 12.1119L5.76953 14.419L7.81708 16.7179L7.53177 19.7692L10.5611 20.4473L12.1472 23.077L15.0003 21.8614L17.8534 23.0687L19.4395 20.4391L22.4688 19.761L22.1835 16.7179L24.2311 14.419ZM13.322 18.5537L9.96534 15.2459L11.1486 14.08L13.322 16.2134L18.852 10.764L20.0353 11.9382L13.322 18.5537Z" fill="white"/>
</svg>
