<svg width="19" height="14" viewBox="0 0 19 14" fill="none" xmlns="http://www.w3.org/2000/svg">
<path d="M9.5 4.4091C8.81285 4.4091 8.15384 4.68207 7.66795 5.16796C7.18206 5.65385 6.90909 6.31286 6.90909 7.00001C6.90909 7.68716 7.18206 8.34617 7.66795 8.83206C8.15384 9.31795 8.81285 9.59092 9.5 9.59092C10.1872 9.59092 10.8462 9.31795 11.3321 8.83206C11.8179 8.34617 12.0909 7.68716 12.0909 7.00001C12.0909 6.31286 11.8179 5.65385 11.3321 5.16796C10.8462 4.68207 10.1872 4.4091 9.5 4.4091ZM9.5 11.3182C8.35475 11.3182 7.2564 10.8632 6.44658 10.0534C5.63677 9.24361 5.18182 8.14526 5.18182 7.00001C5.18182 5.85476 5.63677 4.75641 6.44658 3.94659C7.2564 3.13678 8.35475 2.68183 9.5 2.68183C10.6453 2.68183 11.7436 3.13678 12.5534 3.94659C13.3632 4.75641 13.8182 5.85476 13.8182 7.00001C13.8182 8.14526 13.3632 9.24361 12.5534 10.0534C11.7436 10.8632 10.6453 11.3182 9.5 11.3182ZM9.5 0.522736C5.18182 0.522736 1.49409 3.20864 0 7.00001C1.49409 10.7914 5.18182 13.4773 9.5 13.4773C13.8182 13.4773 17.5059 10.7914 19 7.00001C17.5059 3.20864 13.8182 0.522736 9.5 0.522736Z" fill="#7B7B7B"/>
</svg>
