<svg width="30" height="30" viewBox="0 0 30 30" fill="none" xmlns="http://www.w3.org/2000/svg">
<rect width="30" height="30" rx="8" fill="#7B7B7B"/>
<path d="M9.80454 12.0095L8.93695 11.1343L8.12989 11.9484L7 10.7883L9.74401 8.02035L10.9142 9.18046L10.0668 9.99457L10.9344 10.8697L13.7793 8L14.9294 9.16011L13.7995 10.2795L15.0504 11.5414L12.2257 14.3908L13.3556 15.5509L16.1803 12.6811L17.4111 13.9023L14.5662 16.772L15.6759 17.9118L18.5208 15.0421L20.8815 17.4233L19.1866 19.1737L23 23H20.6999L18.0366 20.3134L16.3417 22.0638L9.2396 14.8996L8.12989 15.9986L7 14.8589L9.80454 12.0095Z" fill="white"/>
</svg>
