<svg width="140" height="30" viewBox="0 0 140 30" fill="none" xmlns="http://www.w3.org/2000/svg">
<rect x="0.5" y="0.5" width="139" height="29" rx="5.5" fill="#169458"/>
<rect x="0.5" y="0.5" width="139" height="29" rx="5.5" stroke="#169458"/>
<path d="M10 20.8158C9.9999 19.9306 10.2195 19.0586 10.6399 18.2746C11.0603 17.4905 11.6689 16.8178 12.4137 16.3141C13.1585 15.8105 14.0171 15.4909 14.916 15.3828C15.8149 15.2747 16.7272 15.3812 17.5747 15.6934M23.5646 17.8232C23.8435 17.5507 24.0001 17.181 24.0001 16.7956C24.0001 16.4102 23.8435 16.0405 23.5646 15.768C23.2858 15.4954 22.9076 15.3423 22.5132 15.3423C22.1189 15.3423 21.7407 15.4954 21.4618 15.768L18.6548 18.5129C18.4884 18.6755 18.3666 18.8764 18.3006 19.0972L17.7147 21.0607C17.6972 21.1196 17.6961 21.182 17.7117 21.2414C17.7272 21.3008 17.7589 21.3551 17.8032 21.3984C17.8476 21.4418 17.9031 21.4727 17.9639 21.4879C18.0246 21.5031 18.0885 21.5021 18.1487 21.4849L20.1577 20.9123C20.3836 20.8478 20.5892 20.7288 20.7555 20.5661L23.5646 17.8232Z" stroke="white" stroke-width="1.6" stroke-linecap="round" stroke-linejoin="round"/>
<path d="M15.5986 15.3427C17.5316 15.3427 19.0987 13.8112 19.0987 11.9219C19.0987 10.0326 17.5316 8.50098 15.5986 8.50098C13.6656 8.50098 12.0986 10.0326 12.0986 11.9219C12.0986 13.8112 13.6656 15.3427 15.5986 15.3427Z" stroke="white" stroke-width="1.6" stroke-linecap="round" stroke-linejoin="round"/>
<path d="M34.684 19V11.272H38.308C38.916 11.272 39.412 11.388 39.796 11.62C40.188 11.852 40.48 12.168 40.672 12.568C40.864 12.968 40.96 13.424 40.96 13.936C40.96 14.456 40.848 14.916 40.624 15.316C40.408 15.716 40.096 16.028 39.688 16.252C39.288 16.468 38.812 16.576 38.26 16.576H36.304V19H34.684ZM36.304 15.292H37.924C38.388 15.292 38.736 15.172 38.968 14.932C39.208 14.684 39.328 14.352 39.328 13.936C39.328 13.488 39.216 13.148 38.992 12.916C38.768 12.676 38.432 12.556 37.984 12.556H36.304V15.292ZM43.4095 19.12C43.0495 19.12 42.7135 19.056 42.4015 18.928C42.0975 18.792 41.8495 18.596 41.6575 18.34C41.4735 18.076 41.3815 17.748 41.3815 17.356C41.3815 16.796 41.5775 16.348 41.9695 16.012C42.3695 15.676 42.9575 15.508 43.7335 15.508H45.4135V15.352C45.4135 15 45.3135 14.752 45.1135 14.608C44.9215 14.464 44.5295 14.392 43.9375 14.392C43.2895 14.392 42.6655 14.492 42.0655 14.692V13.552C42.3295 13.448 42.6495 13.364 43.0255 13.3C43.4095 13.228 43.8255 13.192 44.2735 13.192C45.1295 13.192 45.7895 13.368 46.2535 13.72C46.7255 14.064 46.9615 14.62 46.9615 15.388V19H45.5575L45.4735 18.484C45.2495 18.684 44.9735 18.84 44.6455 18.952C44.3175 19.064 43.9055 19.12 43.4095 19.12ZM43.8535 18.052C44.2135 18.052 44.5255 17.992 44.7895 17.872C45.0535 17.752 45.2615 17.6 45.4135 17.416V16.516H43.7695C43.1375 16.516 42.8215 16.776 42.8215 17.296C42.8215 17.8 43.1655 18.052 43.8535 18.052ZM50.522 19.12C49.866 19.12 49.378 18.948 49.058 18.604C48.746 18.26 48.59 17.792 48.59 17.2V14.56H47.786V13.312H48.59V12.088L50.21 11.608V13.312H51.65L51.554 14.56H50.21V17.092C50.21 17.404 50.282 17.62 50.426 17.74C50.57 17.852 50.794 17.908 51.098 17.908C51.322 17.908 51.554 17.868 51.794 17.788V18.904C51.618 18.976 51.426 19.028 51.218 19.06C51.01 19.1 50.778 19.12 50.522 19.12ZM53.0214 12.268V10.996H54.7854V12.268H53.0214ZM53.1534 19V14.512H52.3014L52.4454 13.312H54.7734V19H53.1534ZM59.1168 19.12C58.1328 19.12 57.3528 18.876 56.7768 18.388C56.2008 17.892 55.9128 17.144 55.9128 16.144C55.9128 15.24 56.1528 14.524 56.6328 13.996C57.1208 13.46 57.8448 13.192 58.8048 13.192C59.6848 13.192 60.3568 13.424 60.8208 13.888C61.2928 14.344 61.5287 14.944 61.5287 15.688V16.72H57.4128C57.5008 17.176 57.7088 17.488 58.0368 17.656C58.3728 17.824 58.8448 17.908 59.4528 17.908C59.7568 17.908 60.0648 17.88 60.3768 17.824C60.6968 17.768 60.9688 17.696 61.1928 17.608V18.76C60.9288 18.88 60.6208 18.968 60.2688 19.024C59.9168 19.088 59.5328 19.12 59.1168 19.12ZM57.4128 15.724H60.1128V15.412C60.1128 15.084 60.0168 14.828 59.8248 14.644C59.6328 14.452 59.3088 14.356 58.8528 14.356C58.3168 14.356 57.9408 14.464 57.7248 14.68C57.5168 14.896 57.4128 15.244 57.4128 15.724ZM62.6567 19V13.312H64.1567L64.2167 13.852C64.4487 13.676 64.7407 13.524 65.0927 13.396C65.4527 13.26 65.8287 13.192 66.2207 13.192C66.9727 13.192 67.5207 13.368 67.8647 13.72C68.2087 14.072 68.3807 14.616 68.3807 15.352V19H66.7607V15.436C66.7607 15.052 66.6807 14.78 66.5207 14.62C66.3687 14.46 66.0807 14.38 65.6567 14.38C65.4087 14.38 65.1567 14.436 64.9007 14.548C64.6527 14.66 64.4447 14.8 64.2767 14.968V19H62.6567ZM71.9556 19.12C71.2996 19.12 70.8116 18.948 70.4916 18.604C70.1796 18.26 70.0236 17.792 70.0236 17.2V14.56H69.2196V13.312H70.0236V12.088L71.6436 11.608V13.312H73.0836L72.9876 14.56H71.6436V17.092C71.6436 17.404 71.7156 17.62 71.8596 17.74C72.0036 17.852 72.2276 17.908 72.5316 17.908C72.7556 17.908 72.9876 17.868 73.2276 17.788V18.904C73.0516 18.976 72.8596 19.028 72.6516 19.06C72.4436 19.1 72.2116 19.12 71.9556 19.12ZM78.6997 19.12C78.2757 19.12 77.8717 19.088 77.4877 19.024C77.1037 18.968 76.7957 18.896 76.5637 18.808V17.464C76.8437 17.576 77.1597 17.664 77.5117 17.728C77.8637 17.784 78.1877 17.812 78.4837 17.812C78.8837 17.812 79.1637 17.788 79.3237 17.74C79.4917 17.692 79.5757 17.584 79.5757 17.416C79.5757 17.224 79.4477 17.084 79.1917 16.996C78.9437 16.908 78.5717 16.784 78.0757 16.624C77.5557 16.448 77.1557 16.236 76.8757 15.988C76.5957 15.74 76.4557 15.372 76.4557 14.884C76.4557 14.34 76.6517 13.924 77.0437 13.636C77.4437 13.34 78.0837 13.192 78.9637 13.192C79.3157 13.192 79.6477 13.22 79.9597 13.276C80.2717 13.324 80.5357 13.384 80.7517 13.456V14.788C80.5357 14.684 80.2877 14.608 80.0077 14.56C79.7277 14.504 79.4677 14.476 79.2277 14.476C78.8837 14.476 78.6077 14.5 78.3997 14.548C78.1997 14.596 78.0997 14.7 78.0997 14.86C78.0997 15.036 78.2077 15.16 78.4237 15.232C78.6477 15.304 78.9917 15.412 79.4557 15.556C79.9117 15.692 80.2677 15.84 80.5237 16C80.7797 16.16 80.9597 16.352 81.0637 16.576C81.1677 16.792 81.2197 17.064 81.2197 17.392C81.2197 18.544 80.3797 19.12 78.6997 19.12ZM82.7402 12.268V10.996H84.5042V12.268H82.7402ZM82.8722 19V14.512H82.0202L82.1642 13.312H84.4922V19H82.8722ZM88.2715 21.112C87.8475 21.112 87.4115 21.084 86.9635 21.028C86.5235 20.972 86.1515 20.892 85.8475 20.788V19.576C86.1675 19.68 86.5435 19.76 86.9755 19.816C87.4075 19.88 87.8115 19.912 88.1875 19.912C88.7395 19.912 89.1395 19.88 89.3875 19.816C89.6355 19.76 89.7595 19.656 89.7595 19.504C89.7595 19.376 89.7035 19.288 89.5915 19.24C89.4875 19.192 89.2635 19.168 88.9195 19.168H87.3715C86.3555 19.168 85.8475 18.792 85.8475 18.04C85.8475 17.808 85.9115 17.596 86.0395 17.404C86.1675 17.212 86.3715 17.06 86.6515 16.948C86.0035 16.62 85.6795 16.068 85.6795 15.292C85.6795 14.556 85.9075 14.024 86.3635 13.696C86.8195 13.36 87.4955 13.192 88.3915 13.192C88.5755 13.192 88.7755 13.208 88.9915 13.24C89.2155 13.264 89.3835 13.288 89.4955 13.312H91.6315L91.5955 14.332H90.6955C90.9435 14.564 91.0675 14.888 91.0675 15.304C91.0675 15.888 90.8835 16.356 90.5155 16.708C90.1475 17.052 89.6035 17.224 88.8835 17.224C88.7555 17.224 88.6315 17.22 88.5115 17.212C88.3995 17.196 88.2835 17.18 88.1635 17.164C87.9235 17.196 87.7195 17.252 87.5515 17.332C87.3915 17.412 87.3115 17.52 87.3115 17.656C87.3115 17.84 87.4755 17.932 87.8035 17.932H89.4115C89.9875 17.932 90.4315 18.064 90.7435 18.328C91.0555 18.584 91.2115 18.96 91.2115 19.456C91.2115 20.016 90.9595 20.432 90.4555 20.704C89.9515 20.976 89.2235 21.112 88.2715 21.112ZM88.4035 16.312C88.8835 16.312 89.2155 16.232 89.3995 16.072C89.5915 15.904 89.6875 15.624 89.6875 15.232C89.6875 14.84 89.5915 14.556 89.3995 14.38C89.2155 14.204 88.8835 14.116 88.4035 14.116C87.9475 14.116 87.6195 14.204 87.4195 14.38C87.2195 14.548 87.1195 14.832 87.1195 15.232C87.1195 15.6 87.2115 15.872 87.3955 16.048C87.5875 16.224 87.9235 16.312 88.4035 16.312ZM92.3051 19V13.312H93.8051L93.8651 13.852C94.0971 13.676 94.3891 13.524 94.7411 13.396C95.1011 13.26 95.4771 13.192 95.8691 13.192C96.6211 13.192 97.1691 13.368 97.5131 13.72C97.8571 14.072 98.0291 14.616 98.0291 15.352V19H96.4091V15.436C96.4091 15.052 96.3291 14.78 96.1691 14.62C96.0171 14.46 95.7291 14.38 95.3051 14.38C95.0571 14.38 94.8051 14.436 94.5491 14.548C94.3011 14.66 94.0931 14.8 93.9251 14.968V19H92.3051ZM100.96 19.12C100.6 19.12 100.264 19.056 99.9523 18.928C99.6483 18.792 99.4003 18.596 99.2083 18.34C99.0243 18.076 98.9323 17.748 98.9323 17.356C98.9323 16.796 99.1283 16.348 99.5203 16.012C99.9203 15.676 100.508 15.508 101.284 15.508H102.964V15.352C102.964 15 102.864 14.752 102.664 14.608C102.472 14.464 102.08 14.392 101.488 14.392C100.84 14.392 100.216 14.492 99.6163 14.692V13.552C99.8803 13.448 100.2 13.364 100.576 13.3C100.96 13.228 101.376 13.192 101.824 13.192C102.68 13.192 103.34 13.368 103.804 13.72C104.276 14.064 104.512 14.62 104.512 15.388V19H103.108L103.024 18.484C102.8 18.684 102.524 18.84 102.196 18.952C101.868 19.064 101.456 19.12 100.96 19.12ZM101.404 18.052C101.764 18.052 102.076 17.992 102.34 17.872C102.604 17.752 102.812 17.6 102.964 17.416V16.516H101.32C100.688 16.516 100.372 16.776 100.372 17.296C100.372 17.8 100.716 18.052 101.404 18.052ZM108.073 19.12C107.417 19.12 106.929 18.948 106.609 18.604C106.297 18.26 106.141 17.792 106.141 17.2V14.56H105.337V13.312H106.141V12.088L107.761 11.608V13.312H109.201L109.105 14.56H107.761V17.092C107.761 17.404 107.833 17.62 107.977 17.74C108.121 17.852 108.345 17.908 108.649 17.908C108.873 17.908 109.105 17.868 109.345 17.788V18.904C109.169 18.976 108.977 19.028 108.769 19.06C108.561 19.1 108.329 19.12 108.073 19.12ZM112.276 19.12C111.596 19.12 111.064 18.932 110.68 18.556C110.304 18.172 110.116 17.612 110.116 16.876V13.312H111.736V16.84C111.736 17.224 111.828 17.504 112.012 17.68C112.196 17.848 112.472 17.932 112.84 17.932C113.12 17.932 113.376 17.876 113.608 17.764C113.848 17.652 114.052 17.512 114.22 17.344V13.312H115.84V19H114.34L114.28 18.46C114.04 18.652 113.756 18.812 113.428 18.94C113.108 19.06 112.724 19.12 112.276 19.12ZM117.219 19V13.312H118.719L118.791 13.9C119.047 13.74 119.363 13.596 119.739 13.468C120.123 13.332 120.499 13.24 120.867 13.192V14.416C120.651 14.448 120.415 14.496 120.159 14.56C119.903 14.624 119.659 14.696 119.427 14.776C119.195 14.856 118.999 14.94 118.839 15.028V19H117.219ZM124.425 19.12C123.441 19.12 122.661 18.876 122.085 18.388C121.509 17.892 121.221 17.144 121.221 16.144C121.221 15.24 121.461 14.524 121.941 13.996C122.429 13.46 123.153 13.192 124.113 13.192C124.993 13.192 125.665 13.424 126.129 13.888C126.601 14.344 126.837 14.944 126.837 15.688V16.72H122.721C122.809 17.176 123.017 17.488 123.345 17.656C123.681 17.824 124.153 17.908 124.761 17.908C125.065 17.908 125.373 17.88 125.685 17.824C126.005 17.768 126.277 17.696 126.501 17.608V18.76C126.237 18.88 125.929 18.968 125.577 19.024C125.225 19.088 124.841 19.12 124.425 19.12ZM122.721 15.724H125.421V15.412C125.421 15.084 125.325 14.828 125.133 14.644C124.941 14.452 124.617 14.356 124.161 14.356C123.625 14.356 123.249 14.464 123.033 14.68C122.825 14.896 122.721 15.244 122.721 15.724Z" fill="white"/>
</svg>
