<svg width="12" height="12" viewBox="0 0 12 12" fill="none" xmlns="http://www.w3.org/2000/svg">
<path d="M1.50066 5.99991C1.50066 6.19882 1.57968 6.38959 1.72033 6.53024C1.86098 6.67089 2.05175 6.74991 2.25066 6.74991H8.19066L6.22066 8.71991C6.08818 8.86208 6.01606 9.05013 6.01948 9.24443C6.02291 9.43873 6.10162 9.62412 6.23904 9.76153C6.37645 9.89894 6.56184 9.97766 6.75614 9.98108C6.95044 9.98451 7.13849 9.91239 7.28066 9.77991L10.5307 6.52991C10.6711 6.38928 10.75 6.19866 10.75 5.99991C10.75 5.80116 10.6711 5.61053 10.5307 5.46991L7.28066 2.21991C7.212 2.14622 7.1292 2.08712 7.0372 2.04613C6.9452 2.00514 6.84589 1.98309 6.74518 1.98132C6.64448 1.97954 6.54445 1.99807 6.45106 2.03579C6.35767 2.07351 6.27284 2.12965 6.20162 2.20087C6.1304 2.27209 6.07426 2.35692 6.03654 2.45031C5.99882 2.5437 5.98029 2.64373 5.98207 2.74443C5.98385 2.84513 6.00589 2.94445 6.04688 3.03645C6.08787 3.12845 6.14697 3.21125 6.22066 3.27991L8.19066 5.24991H2.25066C1.83666 5.24991 1.50066 5.58591 1.50066 5.99991Z" fill="white"/>
</svg>
