<svg width="30" height="30" viewBox="0 0 30 30" fill="none" xmlns="http://www.w3.org/2000/svg">
<rect width="30" height="30" rx="8" fill="#D20006"/>
<path d="M20.4 10.5556H9.6V7H20.4V10.5556ZM20.4 15.4444C20.655 15.4444 20.8689 15.3591 21.0417 15.1884C21.2145 15.0178 21.3006 14.8068 21.3 14.5556C21.2994 14.3043 21.213 14.0933 21.0408 13.9227C20.8686 13.752 20.655 13.6667 20.4 13.6667C20.145 13.6667 19.9314 13.752 19.7592 13.9227C19.587 14.0933 19.5006 14.3043 19.5 14.5556C19.4994 14.8068 19.5858 15.0181 19.7592 15.1893C19.9326 15.3606 20.1462 15.4456 20.4 15.4444ZM18.6 21.2222V17.6667H11.4V21.2222H18.6ZM20.4 23H9.6V19.4444H6V14.1111C6 13.3556 6.2625 12.7224 6.7875 12.2116C7.3125 11.7007 7.95 11.445 8.7 11.4444H21.3C22.065 11.4444 22.7064 11.7001 23.2242 12.2116C23.742 12.723 24.0006 13.3561 24 14.1111V19.4444H20.4V23Z" fill="white"/>
</svg>
