<svg width="26" height="26" viewBox="0 0 26 26" fill="none" xmlns="http://www.w3.org/2000/svg">
<rect width="26" height="26" rx="8" fill="#F28729"/>
<path fill-rule="evenodd" clip-rule="evenodd" d="M19.6667 5.88889H6.33333C6.21546 5.88889 6.10241 5.93571 6.01906 6.01906C5.93571 6.10241 5.88889 6.21546 5.88889 6.33333V19.6667C5.88889 19.7845 5.93571 19.8976 6.01906 19.9809C6.10241 20.0643 6.21546 20.1111 6.33333 20.1111H19.6667C19.7845 20.1111 19.8976 20.0643 19.9809 19.9809C20.0643 19.8976 20.1111 19.7845 20.1111 19.6667V6.33333C20.1111 6.21546 20.0643 6.10241 19.9809 6.01906C19.8976 5.93571 19.7845 5.88889 19.6667 5.88889ZM6.33333 5C5.97971 5 5.64057 5.14048 5.39052 5.39052C5.14048 5.64057 5 5.97971 5 6.33333V19.6667C5 20.0203 5.14048 20.3594 5.39052 20.6095C5.64057 20.8595 5.97971 21 6.33333 21H19.6667C20.0203 21 20.3594 20.8595 20.6095 20.6095C20.8595 20.3594 21 20.0203 21 19.6667V6.33333C21 5.97971 20.8595 5.64057 20.6095 5.39052C20.3594 5.14048 20.0203 5 19.6667 5H6.33333Z" fill="white"/>
<path fill-rule="evenodd" clip-rule="evenodd" d="M8.55577 11.6667C8.4379 11.6667 8.32485 11.7135 8.2415 11.7969C8.15815 11.8802 8.11133 11.9933 8.11133 12.1112V18.7778C8.11133 18.8957 8.15815 19.0088 8.2415 19.0921C8.32485 19.1755 8.4379 19.2223 8.55577 19.2223H10.778C10.778 18.9587 10.8953 18.7214 11.0269 18.5378C11.1729 18.3406 11.3477 18.1665 11.5456 18.0214C11.8482 17.7923 12.1907 17.6214 12.5558 17.5174V16.1761H11.7558C11.2269 16.1761 10.718 16.3529 10.3282 16.5432C10.1275 16.6415 9.93453 16.7549 9.75088 16.8823L9.722 16.9032L9.71622 16.9076L9.44466 16.5556C9.3534 16.439 9.26303 16.3216 9.17355 16.2036L9.17399 16.2032L9.17533 16.2018L9.17933 16.1992L9.19177 16.1898C9.20214 16.1815 9.21651 16.1712 9.23488 16.1587C9.27162 16.1318 9.32318 16.0968 9.38955 16.0538C9.52066 15.9689 9.70866 15.8565 9.93888 15.7441C10.3936 15.5223 11.0407 15.2876 11.7558 15.2876H12.5558V14.3334H12.0669C11.6669 14.3334 11.2856 14.4294 10.9976 14.5307C10.845 14.5838 10.6962 14.6472 10.5522 14.7205L10.5491 14.7218L10.3336 14.3334L10.118 13.9449L10.1184 13.9445L10.1198 13.9436L10.1233 13.9418L10.1331 13.9365C10.1829 13.9094 10.2338 13.8842 10.2856 13.8609C10.3864 13.8143 10.5287 13.7529 10.7033 13.6921C11.0478 13.5703 11.5336 13.4445 12.0669 13.4445H12.5558V12.5556H13.4447V13.4445H13.8002C14.2673 13.4445 14.7847 13.5712 15.1624 13.6858C15.3854 13.7537 15.6054 13.8308 15.822 13.9169L15.8331 13.9214L15.8362 13.9223L15.8376 13.9232L15.6669 14.3334L15.4962 14.7436L15.4944 14.7432L15.4873 14.7401C15.4365 14.7192 15.3853 14.6995 15.3336 14.6809C15.1921 14.6285 15.049 14.5804 14.9047 14.5365C14.5491 14.4289 14.1331 14.3334 13.8002 14.3334H13.4447V15.2872H14.0669C14.6936 15.2872 15.3838 15.5236 15.8838 15.7343C16.1825 15.8608 16.4745 16.0027 16.7584 16.1596L16.7722 16.1676L16.7767 16.1698L16.7776 16.1707H16.7784L16.5558 16.5556L16.3331 16.9401L16.3309 16.9392L16.3207 16.9334L16.2784 16.9098C16.0378 16.7791 15.791 16.6601 15.5389 16.5534C15.0611 16.3521 14.5073 16.1761 14.0669 16.1761H13.4447V17.5032C13.8113 17.5965 14.1651 17.7889 14.4447 18.0023C14.6441 18.1521 14.8208 18.3301 14.9691 18.5307C15.1011 18.7156 15.2224 18.9569 15.2224 19.2223H17.4447C17.5625 19.2223 17.6756 19.1755 17.7589 19.0921C17.8423 19.0088 17.8891 18.8957 17.8891 18.7778V12.1112C17.8891 11.9933 17.8423 11.8802 17.7589 11.7969C17.6756 11.7135 17.5625 11.6667 17.4447 11.6667H8.55577ZM14.3336 19.2223C14.3311 19.2068 14.3266 19.1917 14.3202 19.1774C14.3003 19.1313 14.2753 19.0876 14.2456 19.0472C14.1487 18.9188 14.0341 18.8049 13.9051 18.7089C13.6042 18.4792 13.2611 18.3392 13.0153 18.3334C12.7291 18.3583 12.3727 18.5112 12.0802 18.7316C11.9548 18.8231 11.8435 18.9324 11.7496 19.0561C11.714 19.1058 11.6918 19.1472 11.6793 19.1783C11.6727 19.1921 11.6685 19.207 11.6669 19.2223H14.3336ZM15.0002 8.77783C15.0002 9.30826 14.7895 9.81697 14.4144 10.192C14.0394 10.5671 13.5307 10.7778 13.0002 10.7778C12.4698 10.7778 11.9611 10.5671 11.586 10.192C11.2109 9.81697 11.0002 9.30826 11.0002 8.77783C11.0002 8.2474 11.2109 7.73869 11.586 7.36362C11.9611 6.98855 12.4698 6.77783 13.0002 6.77783C13.5307 6.77783 14.0394 6.98855 14.4144 7.36362C14.7895 7.73869 15.0002 8.2474 15.0002 8.77783Z" fill="white"/>
</svg>
