<svg width="30" height="30" viewBox="0 0 30 30" fill="none" xmlns="http://www.w3.org/2000/svg">
<rect width="30" height="30" rx="8" fill="#0E2970"/>
<path d="M21.0635 21.406C21.3011 21.4064 21.5296 21.4833 21.703 21.6212C21.8765 21.7592 21.9818 21.9479 21.9979 22.1492C22.0139 22.3506 21.9394 22.5497 21.7894 22.7062C21.6395 22.8627 21.4252 22.9651 21.1898 22.9926L21.0635 23H7.93772C7.70006 22.9999 7.47129 22.9232 7.29763 22.7854C7.12398 22.6475 7.01838 22.4588 7.00218 22.2573C6.98598 22.0559 7.06039 21.8567 7.21037 21.7001C7.36035 21.5434 7.57471 21.441 7.81015 21.4135L7.93772 21.406H21.0635ZM14.5088 6C14.7354 6.00001 14.9544 6.06975 15.1252 6.19634C15.2961 6.32292 15.4072 6.49779 15.438 6.68859L15.4468 6.79697L15.4455 17.6284L19.155 14.4724C19.3137 14.337 19.5245 14.2545 19.7487 14.2401C19.973 14.2257 20.196 14.2802 20.3769 14.3937L20.482 14.4702C20.6411 14.6052 20.7379 14.7844 20.7547 14.9749C20.7715 15.1655 20.7071 15.3548 20.5733 15.5084L20.4832 15.5977L15.1766 20.1139L15.0891 20.1808L14.974 20.2435L14.929 20.2658L14.8152 20.3062L14.6651 20.3381L14.5775 20.3466L14.5025 20.3487C14.4394 20.3488 14.3765 20.3431 14.3149 20.3317L14.2123 20.3073C14.0934 20.2756 13.9838 20.2227 13.8909 20.1521L8.52553 15.5988C8.35727 15.4567 8.25858 15.2658 8.24933 15.0645C8.24008 14.8631 8.32095 14.6662 8.47567 14.5135C8.63039 14.3607 8.84747 14.2635 9.08321 14.2412C9.31895 14.219 9.55584 14.2735 9.74619 14.3937L9.85125 14.4713L13.5695 17.6241V6.79697C13.5695 6.5856 13.6683 6.38289 13.8442 6.23343C14.0201 6.08397 14.26 6 14.5088 6Z" fill="#F8F8F8"/>
</svg>
