<svg width="30" height="30" viewBox="0 0 30 30" fill="none" xmlns="http://www.w3.org/2000/svg">
<rect width="30" height="30" rx="8" fill="#0E2970"/>
<path d="M22.2857 16.2632C22.0584 16.2632 21.8404 16.3519 21.6796 16.5098C21.5189 16.6677 21.4286 16.8819 21.4286 17.1053V20.4737C21.4286 20.697 21.3383 20.9112 21.1775 21.0691C21.0168 21.2271 20.7988 21.3158 20.5714 21.3158H8.57143C8.3441 21.3158 8.12608 21.2271 7.96534 21.0691C7.80459 20.9112 7.71429 20.697 7.71429 20.4737V12.3979L12.7543 17.3495C13.234 17.8213 13.8841 18.0877 14.5629 18.0905C14.908 18.0914 15.2498 18.024 15.5679 17.8924C15.886 17.7607 16.1738 17.5675 16.4143 17.3242C16.5688 17.1672 16.6551 16.9573 16.6551 16.7389C16.6551 16.5206 16.5688 16.3107 16.4143 16.1537C16.3345 16.0735 16.2391 16.0097 16.1339 15.9662C16.0286 15.9227 15.9156 15.9003 15.8014 15.9003C15.6872 15.9003 15.5742 15.9227 15.469 15.9662C15.3637 16.0097 15.2684 16.0735 15.1886 16.1537C15.0283 16.308 14.8129 16.3944 14.5886 16.3944C14.3642 16.3944 14.1488 16.308 13.9886 16.1537L8.92286 11.2105H12.8571C13.0845 11.2105 13.3025 11.1218 13.4632 10.9639C13.624 10.806 13.7143 10.5918 13.7143 10.3684C13.7143 10.1451 13.624 9.93089 13.4632 9.77296C13.3025 9.61504 13.0845 9.52632 12.8571 9.52632H8.57143C7.88944 9.52632 7.23539 9.79248 6.75315 10.2663C6.27092 10.74 6 11.3826 6 12.0526V20.4737C6 21.1437 6.27092 21.7863 6.75315 22.2601C7.23539 22.7338 7.88944 23 8.57143 23H20.5714C21.2534 23 21.9075 22.7338 22.3897 22.2601C22.8719 21.7863 23.1429 21.1437 23.1429 20.4737V17.1053C23.1429 16.8819 23.0526 16.6677 22.8918 16.5098C22.7311 16.3519 22.513 16.2632 22.2857 16.2632ZM23.1429 7C22.9155 7 22.6975 7.08872 22.5368 7.24665C22.376 7.40457 22.2857 7.61877 22.2857 7.84211C21.7425 7.44181 21.1101 7.17407 20.4409 7.06096C19.7716 6.94784 19.0846 6.9926 18.4364 7.19152C17.7882 7.39045 17.1974 7.73786 16.7127 8.20512C16.228 8.67238 15.8632 9.24611 15.6485 9.87904C15.4338 10.512 15.3752 11.186 15.4776 11.8455C15.58 12.505 15.8405 13.1312 16.2375 13.6725C16.6346 14.2137 17.1569 14.6545 17.7614 14.9585C18.3658 15.2625 19.0352 15.4211 19.7143 15.4211C20.7571 15.4173 21.7628 15.04 22.5429 14.36C22.7145 14.2126 22.8195 14.0042 22.8348 13.7808C22.85 13.5573 22.7743 13.337 22.6243 13.1684C22.4743 12.9998 22.2622 12.8966 22.0347 12.8816C21.8073 12.8666 21.5831 12.941 21.4114 13.0884C21.0311 13.4197 20.5593 13.6329 20.0557 13.7009C19.5521 13.7689 19.0393 13.6888 18.582 13.4706C18.1248 13.2524 17.7436 12.9059 17.4867 12.475C17.2297 12.0441 17.1086 11.548 17.1385 11.0494C17.1684 10.5509 17.3481 10.0722 17.6548 9.67394C17.9615 9.27566 18.3814 8.97561 18.8616 8.81172C19.3418 8.64783 19.8607 8.62744 20.3526 8.75313C20.8446 8.87882 21.2876 9.14495 21.6257 9.5179H20.5714C20.3441 9.5179 20.1261 9.60662 19.9653 9.76454C19.8046 9.92247 19.7143 10.1367 19.7143 10.36C19.7143 10.5833 19.8046 10.7975 19.9653 10.9555C20.1261 11.1134 20.3441 11.2021 20.5714 11.2021H23.1429C23.3702 11.2021 23.5882 11.1134 23.7489 10.9555C23.9097 10.7975 24 10.5833 24 10.36V7.83368C23.9977 7.61181 23.9064 7.39977 23.7459 7.24366C23.5854 7.08755 23.3687 6.99999 23.1429 7Z" fill="white"/>
</svg>
