<svg width="19" height="18" viewBox="0 0 19 18" fill="none" xmlns="http://www.w3.org/2000/svg">
<path fill-rule="evenodd" clip-rule="evenodd" d="M18.0302 1.51129C18.1626 1.36912 18.2348 1.18107 18.2313 0.986769C18.2279 0.792468 18.1492 0.607083 18.0118 0.46967C17.8744 0.332257 17.689 0.253545 17.4947 0.250117C17.3004 0.246689 17.1123 0.318812 16.9702 0.451292L0.970154 16.4513C0.896467 16.52 0.837365 16.6028 0.796373 16.6948C0.755381 16.7868 0.733339 16.8861 0.731562 16.9868C0.729785 17.0875 0.74831 17.1875 0.786031 17.2809C0.823752 17.3743 0.879897 17.4591 0.951115 17.5303C1.02233 17.6015 1.10717 17.6577 1.20056 17.6954C1.29394 17.7331 1.39397 17.7517 1.49468 17.7499C1.59538 17.7481 1.69469 17.7261 1.78669 17.6851C1.87869 17.6441 1.96149 17.585 2.03015 17.5113L5.06515 14.4763C6.38315 15.0843 7.89215 15.4813 9.50015 15.4813C12.1182 15.4813 14.4722 14.4303 16.1682 13.1283C17.0182 12.4763 17.7152 11.7523 18.2032 11.0483C18.6832 10.3563 19.0002 9.63029 19.0002 8.98129C19.0002 8.33229 18.6832 7.60629 18.2032 6.91529C17.7152 6.21029 17.0182 5.48629 16.1682 4.83529C15.8975 4.62663 15.6108 4.42629 15.3082 4.23429L18.0302 1.51129ZM12.6302 6.91329L11.5302 8.01129C11.7307 8.43115 11.7961 8.90285 11.7174 9.36144C11.6387 9.82003 11.4198 10.2429 11.0908 10.572C10.7618 10.901 10.3389 11.1199 9.8803 11.1986C9.42172 11.2772 8.95001 11.2118 8.53015 11.0113L7.43015 12.1113C8.15129 12.5888 9.01529 12.8023 9.87582 12.7157C10.7363 12.6291 11.5405 12.2478 12.1521 11.6362C12.7636 11.0246 13.145 10.2205 13.2316 9.35996C13.3181 8.49943 13.1046 7.63542 12.6272 6.91429" fill="#7B7B7B"/>
<path d="M10.17 5.29132C10.2111 5.29903 10.2535 5.29669 10.2936 5.2845C10.3336 5.27232 10.3701 5.25064 10.4 5.22132L12.35 3.27132C12.3803 3.24151 12.4023 3.20426 12.4137 3.1633C12.4251 3.12235 12.4256 3.07911 12.415 3.03792C12.4045 2.99672 12.3834 2.95901 12.3537 2.92855C12.324 2.89809 12.2869 2.87594 12.246 2.86432C11.3524 2.61227 10.4285 2.48341 9.5 2.48132C6.882 2.48132 4.528 3.53232 2.832 4.83432C1.982 5.48632 1.285 6.21032 0.796 6.91432C0.316 7.60632 0 8.33232 0 8.98132C0 9.63032 0.317 10.3563 0.796 11.0473C1.27198 11.7151 1.83419 12.317 2.468 12.8373C2.51544 12.8765 2.57584 12.8965 2.63731 12.8934C2.69877 12.8902 2.75682 12.8642 2.8 12.8203L5.74 9.88032C5.76932 9.85045 5.79099 9.81394 5.80318 9.7739C5.81537 9.73386 5.81771 9.69146 5.81 9.65032C5.77 9.43366 5.75 9.21066 5.75 8.98132C5.74995 8.43209 5.87055 7.88956 6.10326 7.39207C6.33598 6.89458 6.67513 6.45427 7.09675 6.10229C7.51836 5.75031 8.01215 5.49523 8.5432 5.3551C9.07426 5.21497 9.62961 5.19319 10.17 5.29132Z" fill="#7B7B7B"/>
</svg>
