<svg width="14" height="14" viewBox="0 0 14 14" fill="none" xmlns="http://www.w3.org/2000/svg">
<path d="M2.4 3.2C2.4 2.35131 2.73714 1.53737 3.33726 0.937258C3.93737 0.337142 4.75131 0 5.6 0C6.44869 0 7.26263 0.337142 7.86274 0.937258C8.46286 1.53737 8.8 2.35131 8.8 3.2C8.8 4.04869 8.46286 4.86263 7.86274 5.46274C7.26263 6.06286 6.44869 6.4 5.6 6.4C4.75131 6.4 3.93737 6.06286 3.33726 5.46274C2.73714 4.86263 2.4 4.04869 2.4 3.2ZM0 8.8C0 7.9096 0.7224 7.2 1.6072 7.2H6.6056C5.95427 7.98759 5.59858 8.97798 5.6 10C5.6 11.0424 5.9624 12 6.568 12.7544C6.25173 12.7848 5.92907 12.8 5.6 12.8C4.116 12.8 2.7336 12.4912 1.708 11.8376C0.6664 11.1736 0 10.152 0 8.8ZM13.6 10C13.6 10.9548 13.2207 11.8705 12.5456 12.5456C11.8705 13.2207 10.9548 13.6 10 13.6C9.04522 13.6 8.12955 13.2207 7.45442 12.5456C6.77929 11.8705 6.4 10.9548 6.4 10C6.4 9.04522 6.77929 8.12955 7.45442 7.45442C8.12955 6.77929 9.04522 6.4 10 6.4C10.9548 6.4 11.8705 6.77929 12.5456 7.45442C13.2207 8.12955 13.6 9.04522 13.6 10ZM11.8832 8.5168C11.846 8.47955 11.8019 8.45 11.7533 8.42983C11.7047 8.40967 11.6526 8.39929 11.6 8.39929C11.5474 8.39929 11.4953 8.40967 11.4467 8.42983C11.3981 8.45 11.354 8.47955 11.3168 8.5168L9.2 10.6344L8.6832 10.1168C8.60809 10.0417 8.50622 9.9995 8.4 9.9995C8.29378 9.9995 8.19191 10.0417 8.1168 10.1168C8.04169 10.1919 7.9995 10.2938 7.9995 10.4C7.9995 10.5062 8.04169 10.6081 8.1168 10.6832L8.9168 11.4832C8.95396 11.5205 8.9981 11.55 9.04669 11.5702C9.09529 11.5903 9.14739 11.6007 9.2 11.6007C9.25261 11.6007 9.30471 11.5903 9.35331 11.5702C9.4019 11.55 9.44604 11.5205 9.4832 11.4832L11.8832 9.0832C11.9205 9.04604 11.95 9.0019 11.9702 8.95331C11.9903 8.90471 12.0007 8.85261 12.0007 8.8C12.0007 8.74739 11.9903 8.69529 11.9702 8.64669C11.95 8.5981 11.9205 8.55396 11.8832 8.5168Z" fill="#169458"/>
</svg>
