<svg width="30" height="30" viewBox="0 0 30 30" fill="none" xmlns="http://www.w3.org/2000/svg">
<circle cx="15" cy="15" r="15" fill="#93AD00"/>
<path d="M19.5 16.75C20.034 16.75 20.556 16.596 21 16.3076C21.444 16.0192 21.7901 15.6092 21.9944 15.1295C22.1988 14.6499 22.2523 14.1221 22.1481 13.6129C22.0439 13.1037 21.7867 12.636 21.4091 12.2688C21.0315 11.9017 20.5505 11.6517 20.0267 11.5504C19.503 11.4492 18.9601 11.5011 18.4667 11.6998C17.9734 11.8985 17.5517 12.2349 17.255 12.6666C16.9583 13.0983 16.8 13.6058 16.8 14.125C16.8 14.8212 17.0844 15.4889 17.5908 15.9812C18.0971 16.4734 18.7839 16.75 19.5 16.75ZM20.85 17.625C20.7826 17.6248 20.7156 17.6348 20.6514 17.6548C19.9055 17.9067 19.0941 17.9067 18.3482 17.6548C18.2842 17.6348 18.2173 17.6248 18.15 17.625C17.7348 17.625 17.3238 17.7048 16.9405 17.8597C16.5572 18.0147 16.2091 18.2418 15.9164 18.528C15.6237 18.8141 15.392 19.1538 15.2347 19.5273C15.0775 19.9008 14.9977 20.3009 15 20.7045C15.0039 21.4225 15.6111 22 16.35 22H22.65C23.3888 22 23.996 21.4225 24 20.7045C24.0022 20.3009 23.9225 19.9008 23.7652 19.5273C23.6079 19.1538 23.3763 18.8141 23.0835 18.528C22.7908 18.2418 22.4428 18.0147 22.0595 17.8597C21.6761 17.7048 21.2651 17.625 20.85 17.625ZM15.2787 17.9107C15.4689 17.7289 15.677 17.5656 15.9 17.4232V11.5C15.9 11.2679 15.8052 11.0454 15.6364 10.8813C15.4676 10.7172 15.2387 10.625 15 10.625H14.1V8.875C14.1 8.64294 14.0052 8.42038 13.8364 8.25628C13.6676 8.09219 13.4387 8 13.2 8H8.69999C8.4613 8 8.23238 8.09219 8.0636 8.25628C7.89482 8.42038 7.8 8.64294 7.8 8.875V10.625H6.9C6.6613 10.625 6.43239 10.7172 6.2636 10.8813C6.09482 11.0454 6 11.2679 6 11.5V21.5625C6 21.6785 6.04741 21.7898 6.1318 21.8719C6.21619 21.9539 6.33065 22 6.45 22H14.5587C14.2655 21.6296 14.1045 21.1764 14.1 20.7091C14.0956 20.19 14.1976 19.6752 14.4 19.1947C14.6023 18.7143 14.901 18.2778 15.2787 17.9107ZM10.05 19.0469C10.05 19.1339 10.0144 19.2174 9.95114 19.2789C9.88784 19.3404 9.802 19.375 9.71249 19.375H8.58749C8.49798 19.375 8.41214 19.3404 8.34885 19.2789C8.28555 19.2174 8.24999 19.1339 8.24999 19.0469V17.9531C8.24999 17.8661 8.28555 17.7826 8.34885 17.7211C8.41214 17.6596 8.49798 17.625 8.58749 17.625H9.71249C9.802 17.625 9.88784 17.6596 9.95114 17.7211C10.0144 17.7826 10.05 17.8661 10.05 17.9531V19.0469ZM10.05 15.5469C10.05 15.6339 10.0144 15.7174 9.95114 15.7789C9.88784 15.8404 9.802 15.875 9.71249 15.875H8.58749C8.49798 15.875 8.41214 15.8404 8.34885 15.7789C8.28555 15.7174 8.24999 15.6339 8.24999 15.5469V14.4531C8.24999 14.3661 8.28555 14.2826 8.34885 14.2211C8.41214 14.1596 8.49798 14.125 8.58749 14.125H9.71249C9.802 14.125 9.88784 14.1596 9.95114 14.2211C10.0144 14.2826 10.05 14.3661 10.05 14.4531V15.5469ZM11.4 12.2109C11.4 12.2544 11.3822 12.2962 11.3506 12.3269C11.3189 12.3577 11.276 12.375 11.2312 12.375H10.6687C10.624 12.375 10.5811 12.3577 10.5494 12.3269C10.5178 12.2962 10.5 12.2544 10.5 12.2109V11.5H9.76874C9.72398 11.5 9.68106 11.4827 9.64942 11.4519C9.61777 11.4212 9.59999 11.3794 9.59999 11.3359V10.7891C9.59999 10.7456 9.61777 10.7038 9.64942 10.6731C9.68106 10.6423 9.72398 10.625 9.76874 10.625H10.5V9.91406C10.5 9.87055 10.5178 9.82882 10.5494 9.79805C10.5811 9.76729 10.624 9.75 10.6687 9.75H11.2312C11.276 9.75 11.3189 9.76729 11.3506 9.79805C11.3822 9.82882 11.4 9.87055 11.4 9.91406V10.625H12.1312C12.176 10.625 12.2189 10.6423 12.2506 10.6731C12.2822 10.7038 12.3 10.7456 12.3 10.7891V11.3359C12.3 11.3794 12.2822 11.4212 12.2506 11.4519C12.2189 11.4827 12.176 11.5 12.1312 11.5H11.4V12.2109ZM13.65 19.0469C13.65 19.1339 13.6144 19.2174 13.5511 19.2789C13.4878 19.3404 13.402 19.375 13.3125 19.375H12.1875C12.098 19.375 12.0121 19.3404 11.9488 19.2789C11.8855 19.2174 11.85 19.1339 11.85 19.0469V17.9531C11.85 17.8661 11.8855 17.7826 11.9488 17.7211C12.0121 17.6596 12.098 17.625 12.1875 17.625H13.3125C13.402 17.625 13.4878 17.6596 13.5511 17.7211C13.6144 17.7826 13.65 17.8661 13.65 17.9531V19.0469ZM13.65 15.5469C13.65 15.6339 13.6144 15.7174 13.5511 15.7789C13.4878 15.8404 13.402 15.875 13.3125 15.875H12.1875C12.098 15.875 12.0121 15.8404 11.9488 15.7789C11.8855 15.7174 11.85 15.6339 11.85 15.5469V14.4531C11.85 14.3661 11.8855 14.2826 11.9488 14.2211C12.0121 14.1596 12.098 14.125 12.1875 14.125H13.3125C13.402 14.125 13.4878 14.1596 13.5511 14.2211C13.6144 14.2826 13.65 14.3661 13.65 14.4531V15.5469Z" fill="white"/>
</svg>
