<svg width="15" height="18" viewBox="0 0 15 18" fill="none" xmlns="http://www.w3.org/2000/svg">
<path d="M10.875 11.4375H15V12.5625H10.875V13.875L9 12L10.875 10.125V11.4375ZM13.125 14.625V13.3125L15 15.1875L13.125 17.0625V15.75H9V14.625H13.125ZM5.625 3.9375C5.22718 3.9375 4.84564 3.77946 4.56434 3.49816C4.28304 3.21686 4.125 2.83532 4.125 2.4375C4.125 2.03968 4.28304 1.65814 4.56434 1.37684C4.84564 1.09554 5.22718 0.9375 5.625 0.9375C6.02282 0.9375 6.40436 1.09554 6.68566 1.37684C6.96696 1.65814 7.125 2.03968 7.125 2.4375C7.125 2.83532 6.96696 3.21686 6.68566 3.49816C6.40436 3.77946 6.02282 3.9375 5.625 3.9375ZM2.8125 6.4875L1.5 7.05V9.5625H0V6.0375L3.9375 4.425C4.125 4.35 4.3125 4.3125 4.5 4.3125C5.025 4.3125 5.5125 4.575 5.775 5.025L6.4875 6.225C7.1625 7.3125 8.3625 8.0625 9.75 8.0625V9.5625C8.1 9.5625 6.6375 8.8125 5.6625 7.6125L5.2125 9.8625L6.75 11.4V17.0625H5.25V12.5625L3.6375 11.0625L2.325 17.0625H0.75L2.8125 6.4875Z" fill="#FB9C2A"/>
</svg>
