<svg width="30" height="30" viewBox="0 0 30 30" fill="none" xmlns="http://www.w3.org/2000/svg">
<circle cx="15" cy="15" r="15" fill="#FF947A"/>
<path d="M13.7651 8C12.8913 8 12.0534 8.34706 11.4356 8.96482C10.8178 9.58259 10.4707 10.4205 10.4707 11.2941C10.4707 12.1678 10.8178 13.0056 11.4356 13.6234C12.0534 14.2412 12.8913 14.5882 13.7651 14.5882C14.6388 14.5882 15.4767 14.2412 16.0945 13.6234C16.7123 13.0056 17.0594 12.1678 17.0594 11.2941C17.0594 10.4205 16.7123 9.58259 16.0945 8.96482C15.4767 8.34706 14.6388 8 13.7651 8ZM9.65457 15.4118C9.43764 15.4108 9.22265 15.4527 9.02195 15.535C8.82126 15.6173 8.6388 15.7385 8.48506 15.8915C8.33132 16.0446 8.20933 16.2265 8.12609 16.4268C8.04285 16.6271 8 16.8419 8 17.0588C8 18.4514 8.68604 19.5014 9.75834 20.1858C10.8142 20.8586 12.2373 21.1765 13.7651 21.1765H13.7692C13.7692 20.9319 13.8244 20.6807 13.9446 20.4386L16.4565 15.4118H9.65457ZM17.556 15.0445L14.6768 20.8075C14.6138 20.9331 14.584 21.0728 14.5903 21.2131C14.5966 21.3535 14.6386 21.4899 14.7125 21.6095C14.7864 21.729 14.8896 21.8276 15.0124 21.896C15.1351 21.9643 15.2733 22.0001 15.4139 22H21.1756C21.3161 22.0001 21.4544 21.9643 21.5771 21.896C21.6999 21.8276 21.8031 21.729 21.877 21.6095C21.9509 21.4899 21.9929 21.3535 21.9992 21.2131C22.0054 21.0728 21.9757 20.9331 21.9127 20.8075L19.0302 15.0436C18.9619 14.9066 18.8567 14.7913 18.7265 14.7107C18.5963 14.6302 18.4462 14.5875 18.2931 14.5875C18.14 14.5875 17.9899 14.6302 17.8597 14.7107C17.7295 14.7913 17.6243 14.9074 17.556 15.0445ZM18.7049 16.6421V19.1144C18.7049 19.2236 18.6615 19.3283 18.5843 19.4055C18.507 19.4827 18.4023 19.5261 18.2931 19.5261C18.1839 19.5261 18.0791 19.4827 18.0019 19.4055C17.9247 19.3283 17.8813 19.2236 17.8813 19.1144V16.6421C17.8813 16.5329 17.9247 16.4282 18.0019 16.351C18.0791 16.2737 18.1839 16.2304 18.2931 16.2304C18.4023 16.2304 18.507 16.2737 18.5843 16.351C18.6615 16.4282 18.7049 16.5329 18.7049 16.6421ZM18.2931 21.1748C18.1839 21.1748 18.0791 21.1314 18.0019 21.0542C17.9247 20.977 17.8813 20.8723 17.8813 20.7631C17.8813 20.6539 17.9247 20.5491 18.0019 20.4719C18.0791 20.3947 18.1839 20.3513 18.2931 20.3513C18.4023 20.3513 18.507 20.3947 18.5843 20.4719C18.6615 20.5491 18.7049 20.6539 18.7049 20.7631C18.7049 20.8723 18.6615 20.977 18.5843 21.0542C18.507 21.1314 18.4023 21.1748 18.2931 21.1748Z" fill="white"/>
</svg>
