<svg width="24" height="24" viewBox="0 0 24 24" fill="none" xmlns="http://www.w3.org/2000/svg">
<path d="M6 22C5.45 22 4.97933 21.8043 4.588 21.413C4.19667 21.0217 4.00067 20.5507 4 20V10C4 9.45 4.196 8.97933 4.588 8.588C4.98 8.19667 5.45067 8.00067 6 8H15V6C15 5.16667 14.7083 4.45833 14.125 3.875C13.5417 3.29167 12.8333 3 12 3C11.3 3 10.6873 3.21267 10.162 3.638C9.63667 4.06333 9.28267 4.59233 9.1 5.225C9.03333 5.45833 8.89567 5.646 8.687 5.788C8.47833 5.93 8.24933 6.00067 8 6C7.71667 6 7.47933 5.90833 7.288 5.725C7.09667 5.54167 7.02567 5.325 7.075 5.075C7.25833 3.94167 7.81233 2.979 8.737 2.187C9.66167 1.395 10.7493 0.999334 12 1C13.3833 1 14.5627 1.48767 15.538 2.463C16.5133 3.43833 17.0007 4.61733 17 6V8H18C18.55 8 19.021 8.196 19.413 8.588C19.805 8.98 20.0007 9.45067 20 10V20C20 20.55 19.8043 21.021 19.413 21.413C19.0217 21.805 18.5507 22.0007 18 22H6ZM12 17C12.55 17 13.021 16.8043 13.413 16.413C13.805 16.0217 14.0007 15.5507 14 15C13.9993 14.4493 13.8037 13.9787 13.413 13.588C13.0223 13.1973 12.5513 13.0013 12 13C11.4487 12.9987 10.978 13.1947 10.588 13.588C10.198 13.9813 10.002 14.452 10 15C9.998 15.548 10.194 16.019 10.588 16.413C10.982 16.807 11.4527 17.0027 12 17Z" fill="#169458"/>
</svg>
