<svg width="30" height="30" viewBox="0 0 30 30" fill="none" xmlns="http://www.w3.org/2000/svg">
<rect width="30" height="30" rx="8" fill="#36B8B8"/>
<path d="M22.5202 19.9637C22.8402 20.3381 23.0002 20.5253 23.0002 20.8502C23.0002 21.1751 22.8402 21.3632 22.5202 21.7367C21.7202 22.6682 20.2776 24.0002 18.5558 24.0002C16.834 24.0002 15.3904 22.6682 14.5913 21.7367C14.2713 21.3623 14.1113 21.176 14.1113 20.8502C14.1113 20.5253 14.2713 20.3372 14.5913 19.9637C15.3913 19.0322 16.834 17.7002 18.5558 17.7002C20.2776 17.7002 21.7211 19.0322 22.5202 19.9637Z" fill="#36B8B8" stroke="white" stroke-width="1.5" stroke-linecap="round" stroke-linejoin="round"/>
<path d="M22.1111 15.9027V11.238C22.1111 9.7134 22.1111 8.952 21.8729 8.3427C21.4907 7.3644 20.68 6.5922 19.6533 6.2277C19.0151 6 18.2151 6 16.616 6C13.8178 6 12.4187 6 11.3004 6.3969C9.50489 7.0359 8.08711 8.3868 7.416 10.0995C7 11.166 7 12.4989 7 15.1665V17.4579C7 20.2209 7 21.6024 7.75378 22.5627C7.96978 22.8372 8.22489 23.0811 8.51378 23.2872C9.32444 23.8659 10.4222 23.9784 12.3333 24" fill="#36B8B8"/>
<path d="M22.1111 15.9027V11.238C22.1111 9.7134 22.1111 8.952 21.8729 8.3427C21.4907 7.3644 20.68 6.5922 19.6533 6.2277C19.0151 6 18.2151 6 16.616 6C13.8178 6 12.4187 6 11.3004 6.3969C9.50489 7.0359 8.08711 8.3868 7.416 10.0995C7 11.166 7 12.4989 7 15.1665V17.4579C7 20.2209 7 21.6024 7.75378 22.5627C7.96978 22.8372 8.22489 23.0811 8.51378 23.2872C9.32444 23.8659 10.4222 23.9784 12.3333 24" stroke="white" stroke-width="1.5" stroke-linecap="round" stroke-linejoin="round"/>
<path d="M7 15C7 14.2044 7.31214 13.4414 7.86775 12.8789C8.42335 12.3163 9.17692 12.0003 9.96267 12.0003C10.5547 12.0003 11.2524 12.1047 11.8276 11.949C12.0789 11.8805 12.308 11.7464 12.4919 11.56C12.6758 11.3736 12.8081 11.1415 12.8756 10.887C13.0293 10.3047 12.9262 9.5982 12.9262 8.9988C12.9265 8.20339 13.2387 7.44063 13.7943 6.87827C14.3499 6.31592 15.1033 6 15.8889 6M18.5484 20.85H18.5573H18.5484Z" fill="#36B8B8"/>
<path d="M7 15C7 14.2044 7.31214 13.4414 7.86775 12.8789C8.42335 12.3163 9.17692 12.0003 9.96267 12.0003C10.5547 12.0003 11.2524 12.1047 11.8276 11.949C12.0789 11.8805 12.308 11.7464 12.4919 11.56C12.6758 11.3736 12.8081 11.1415 12.8756 10.887C13.0293 10.3047 12.9262 9.5982 12.9262 8.9988C12.9265 8.20339 13.2387 7.44063 13.7943 6.87827C14.3499 6.31592 15.1033 6 15.8889 6M18.5484 20.85H18.5573" stroke="white" stroke-width="1.5" stroke-linecap="round" stroke-linejoin="round"/>
</svg>
