<svg width="24" height="24" viewBox="0 0 24 24" fill="none" xmlns="http://www.w3.org/2000/svg">
<mask id="mask0_9079_1817" style="mask-type:alpha" maskUnits="userSpaceOnUse" x="0" y="0" width="24" height="24">
<rect width="24" height="24" fill="#D9D9D9"/>
</mask>
<g mask="url(#mask0_9079_1817)">
<path d="M15.3 17.03L16.7 15.6293L13 11.9273V7.32491H11V12.7278L15.3 17.03ZM12 22.3328C10.6167 22.3328 9.31667 22.0702 8.1 21.5449C6.88333 21.0196 5.825 20.3068 4.925 19.4063C4.025 18.5058 3.3125 17.4469 2.7875 16.2296C2.2625 15.0123 2 13.7116 2 12.3276C2 10.9435 2.2625 9.6428 2.7875 8.42549C3.3125 7.20818 4.025 6.14929 4.925 5.24881C5.825 4.34834 6.88333 3.63546 8.1 3.11018C9.31667 2.5849 10.6167 2.32227 12 2.32227C13.3833 2.32227 14.6833 2.5849 15.9 3.11018C17.1167 3.63546 18.175 4.34834 19.075 5.24881C19.975 6.14929 20.6875 7.20818 21.2125 8.42549C21.7375 9.6428 22 10.9435 22 12.3276C22 13.7116 21.7375 15.0123 21.2125 16.2296C20.6875 17.4469 19.975 18.5058 19.075 19.4063C18.175 20.3068 17.1167 21.0196 15.9 21.5449C14.6833 22.0702 13.3833 22.3328 12 22.3328ZM12 20.3318C14.2167 20.3318 16.1042 19.5522 17.6625 17.993C19.2208 16.4339 20 14.5454 20 12.3276C20 10.1097 19.2208 8.22122 17.6625 6.66206C16.1042 5.1029 14.2167 4.32332 12 4.32332C9.78333 4.32332 7.89583 5.1029 6.3375 6.66206C4.77917 8.22122 4 10.1097 4 12.3276C4 14.5454 4.77917 16.4339 6.3375 17.993C7.89583 19.5522 9.78333 20.3318 12 20.3318Z" fill="white"/>
</g>
</svg>
